<?xml version="1.0" encoding="UTF-8" standalone="no"?>
<!DOCTYPE svg PUBLIC "-//W3C//DTD SVG 1.1//EN" "http://www.w3.org/Graphics/SVG/1.1/DTD/svg11.dtd">
<svg xmlns="http://www.w3.org/2000/svg" version="1.1" viewBox="0.00 0.00 1024.00 1024.00">
<g stroke-width="2.00" fill="none" stroke-linecap="butt">
<path stroke="#98a69c" vector-effect="non-scaling-stroke" d="
  M 187.67 365.93
  Q 163.45 418.75 156.94 478.31
  Q 155.96 487.26 155.86 498.26
  C 155.70 515.40 155.12 533.15 156.83 549.96
  C 163.51 615.39 186.14 679.19 226.46 731.81
  Q 260.68 776.48 305.37 809.15
  C 327.15 825.08 350.98 837.40 376.96 848.76
  C 410.58 863.46 446.68 871.92 483.10 875.68
  C 488.57 876.24 495.84 876.32 502.75 876.93
  Q 510.05 877.58 519.28 876.98
  Q 529.65 876.30 533.27 876.13
  Q 541.27 875.75 547.24 874.96
  Q 561.08 873.12 579.05 869.77
  Q 589.74 867.77 598.55 865.37
  Q 695.63 838.90 766.61 767.66
  C 771.83 762.43 777.07 756.20 782.79 749.79
  Q 807.13 722.55 826.64 686.47
  Q 834.18 672.54 840.87 655.60
  Q 870.29 581.17 868.09 501.71
  C 867.98 498.07 867.29 493.88 867.11 489.92
  Q 866.78 483.01 866.59 481.10
  C 863.70 452.19 857.76 426.84 850.16 402.76
  Q 841.26 374.60 825.85 346.31
  Q 809.47 316.24 792.71 294.78
  Q 777.75 275.61 755.41 254.14
  Q 753.70 252.49 750.33 249.65
  C 746.00 246.00 741.60 241.38 737.77 238.32
  Q 717.87 222.47 696.31 208.97
  Q 625.80 164.80 543.20 156.84
  Q 534.67 156.02 523.24 155.94
  C 508.26 155.84 492.86 155.07 478.18 156.86
  C 435.37 162.05 393.14 173.12 354.66 193.48
  C 348.34 196.83 341.10 200.38 335.69 203.48
  Q 300.00 223.91 273.26 249.52
  Q 256.65 265.43 241.50 282.74
  Q 208.54 320.40 187.67 365.93"
/>
<path stroke="#98a193" vector-effect="non-scaling-stroke" d="
  M 481.73 178.14
  C 440.60 182.65 400.33 193.47 363.54 212.58"
/>
<path stroke="#1e3a2c" vector-effect="non-scaling-stroke" d="
  M 363.54 212.58
  L 364.24 211.51
  Q 364.55 211.03 363.98 211.10
  Q 361.62 211.36 359.86 212.97
  Q 359.47 213.33 358.94 213.34
  Q 358.33 213.36 357.76 213.65
  Q 348.60 218.41 339.72 223.70
  C 338.21 224.61 336.08 224.97 334.65 226.96
  Q 334.36 227.37 333.90 227.54
  Q 331.44 228.49 329.34 229.98
  Q 326.70 231.86 325.10 232.76
  Q 320.96 235.08 317.37 238.26
  Q 312.95 242.19 308.49 246.10
  Q 306.89 247.51 303.94 249.20
  Q 301.52 250.58 299.39 252.39
  Q 294.19 256.78 289.06 261.24
  Q 285.01 264.77 279.31 270.67
  C 274.68 275.45 269.42 280.11 265.26 284.80
  Q 251.32 300.54 238.68 317.36
  C 235.59 321.48 232.10 327.31 228.34 332.01
  C 226.80 333.94 225.59 336.30 224.00 338.33
  Q 221.57 341.40 220.67 342.97
  C 215.52 351.88 211.74 361.28 206.93 370.33
  Q 204.91 374.12 203.46 377.87
  Q 199.98 386.88 196.40 395.84
  C 195.69 397.62 195.62 399.55 194.74 401.38
  Q 192.60 405.83 191.36 410.58
  Q 188.98 419.70 188.95 419.81
  Q 186.32 428.54 182.36 443.87
  Q 181.99 445.31 181.88 446.28
  Q 181.69 448.03 181.49 448.64
  Q 179.62 454.29 178.89 460.18
  Q 178.06 466.95 178.05 467.02
  Q 177.20 472.86 176.60 478.74
  C 176.44 480.26 175.69 481.80 175.63 483.75
  Q 174.82 510.80 175.04 530.50
  Q 175.07 533.24 176.46 534.28"
/>
<path stroke="#98a193" vector-effect="non-scaling-stroke" d="
  M 176.46 534.28
  Q 180.76 588.17 199.34 638.96
  C 214.36 680.03 239.30 717.83 269.37 749.12
  Q 344.23 827.02 450.74 849.11
  Q 498.00 858.90 544.24 853.72
  Q 631.27 843.97 703.37 793.26"
/>
<path stroke="#1e3a2c" vector-effect="non-scaling-stroke" d="
  M 703.37 793.26
  Q 703.31 793.55 703.39 793.78
  Q 703.60 794.31 704.08 793.99
  C 720.00 783.41 733.55 770.66 747.84 757.48
  Q 758.43 747.71 763.46 741.59
  Q 771.01 732.41 778.89 723.51
  Q 779.13 723.24 779.16 722.82
  A 1.06 1.01 67.9 0 1 779.40 722.21
  Q 783.18 717.73 786.67 713.02
  C 788.14 711.02 790.99 707.83 792.64 704.73
  C 793.40 703.31 794.70 702.48 795.39 701.00
  Q 796.48 698.64 796.52 698.57
  Q 802.79 687.95 809.15 677.39
  Q 813.09 670.83 819.97 654.96
  Q 823.33 647.23 826.92 636.22
  Q 830.41 625.50 834.27 614.89
  Q 835.55 611.38 836.76 605.77
  Q 837.05 604.42 837.87 602.84
  C 839.26 600.19 839.05 596.61 839.41 593.65
  Q 839.43 593.54 839.53 593.49
  Q 839.65 593.43 839.78 593.39
  Q 840.07 593.28 840.15 592.98
  Q 840.93 589.77 841.08 585.25
  Q 841.09 584.95 841.40 584.89
  Q 841.73 584.83 841.79 584.50
  Q 842.43 581.05 842.93 577.58
  C 843.47 573.76 844.93 568.06 844.59 562.84
  Q 844.56 562.37 844.96 562.10
  Q 845.64 561.64 845.88 560.49
  Q 846.84 555.93 847.11 552.03
  Q 847.51 546.35 847.88 543.58
  Q 848.35 539.97 848.47 536.33
  C 848.55 534.12 849.44 531.56 849.24 529.04
  Q 849.01 526.08 849.00 525.95
  Q 848.79 513.46 848.38 500.88
  A 0.95 0.94 77.6 0 0 847.07 500.04
  Q 846.90 500.11 846.78 501.25"
/>
<path stroke="#98a193" vector-effect="non-scaling-stroke" d="
  M 846.78 501.25
  Q 845.79 469.37 837.37 435.13
  Q 829.42 402.83 817.19 376.28
  C 795.83 329.90 763.16 286.78 722.93 254.26
  Q 707.33 241.64 696.55 234.43
  Q 624.03 185.90 536.67 177.91"
/>
<path stroke="#1e3a2c" vector-effect="non-scaling-stroke" d="
  M 536.67 177.91
  L 537.43 177.63
  Q 537.60 177.57 537.47 177.45
  L 537.11 177.11
  Q 536.80 176.82 536.38 176.78
  Q 512.93 174.63 489.42 175.87
  C 486.46 176.02 483.76 176.71 480.92 177.37
  Q 480.81 177.39 480.76 177.49
  Q 480.68 177.64 480.61 177.78
  A 0.18 0.17 -80.0 0 0 480.78 178.03
  Q 481.32 177.97 481.73 178.14"
/>
<path stroke="#858f86" vector-effect="non-scaling-stroke" d="
  M 536.67 177.91
  Q 509.19 175.14 481.73 178.14"
/>
<path stroke="#858f86" vector-effect="non-scaling-stroke" d="
  M 846.78 501.25
  C 848.31 531.00 845.22 558.12 839.90 584.74
  Q 833.24 618.10 819.86 651.00
  Q 815.99 660.51 811.53 669.18
  C 786.24 718.35 748.53 760.81 703.37 793.26"
/>
<path stroke="#858f86" vector-effect="non-scaling-stroke" d="
  M 176.46 534.28
  Q 172.59 439.08 216.17 355.72
  C 223.24 342.20 233.02 328.12 241.67 316.42
  Q 278.51 266.59 330.99 231.30
  Q 342.40 223.63 363.54 212.58"
/>
<path stroke="#858f86" vector-effect="non-scaling-stroke" d="
  M 515.21 190.12
  C 509.45 188.33 501.51 191.71 501.47 198.75
  Q 501.33 219.75 501.23 240.75
  C 501.20 246.56 503.71 252.24 509.82 253.31
  Q 514.14 254.07 517.69 250.92
  Q 522.06 247.04 522.10 240.00
  Q 522.20 221.04 522.01 202.09
  C 521.95 196.46 520.71 191.83 515.21 190.12"
/>
<path stroke="#858f86" vector-effect="non-scaling-stroke" d="
  M 369.50 290.72
  C 378.26 296.69 391.35 285.74 384.46 276.05
  Q 371.88 258.36 359.44 240.57
  C 353.04 231.42 339.08 238.74 341.53 249.02
  Q 342.20 251.79 345.95 257.37
  Q 354.90 270.67 363.88 283.94
  Q 367.57 289.40 369.50 290.72"
/>
<path stroke="#858f86" vector-effect="non-scaling-stroke" d="
  M 681.1636 253.2729
  A 10.31 10.31 0.0 0 0 678.7069 238.9008
  L 678.2662 238.5887
  A 10.31 10.31 0.0 0 0 663.8941 241.0454
  L 639.1964 275.9271
  A 10.31 10.31 0.0 0 0 641.6531 290.2992
  L 642.0938 290.6113
  A 10.31 10.31 0.0 0 0 656.4659 288.1546
  L 681.1636 253.2729"
/>
<path stroke="#858f86" vector-effect="non-scaling-stroke" d="
  M 497.19 291.81
  C 450.52 327.12 408.33 367.49 375.80 416.44"
/>
<path stroke="#98a193" vector-effect="non-scaling-stroke" d="
  M 375.80 416.44
  Q 364.73 432.44 356.25 450.50"
/>
<path stroke="#858f86" vector-effect="non-scaling-stroke" d="
  M 356.25 450.50
  Q 331.66 435.56 320.90 428.33
  Q 313.53 423.38 306.88 426.91
  C 301.93 429.55 299.13 435.43 301.58 440.69
  Q 303.63 445.09 306.30 446.73
  Q 315.96 452.68 325.67 459.00"
/>
<path stroke="#f9ece1" vector-effect="non-scaling-stroke" d="
  M 325.67 459.00
  C 324.36 459.82 322.89 459.46 321.69 458.42
  C 314.61 452.27 305.12 452.96 304.54 464.01
  C 304.36 467.52 304.80 469.27 307.84 471.39
  Q 315.65 476.84 323.88 481.65
  C 328.30 484.24 332.33 487.31 336.57 490.13
  A 0.89 0.88 -63.8 0 0 337.91 489.67
  Q 340.01 483.21 342.17 476.39
  Q 342.58 475.09 343.66 473.39
  Q 343.93 472.97 343.73 472.51
  Q 343.24 471.39 343.42 470.44"
/>
<path stroke="#858f86" vector-effect="non-scaling-stroke" d="
  M 343.42 470.44
  Q 344.53 470.63 345.00 471.07
  Q 345.42 471.48 345.05 472.47
  Q 330.20 511.94 331.10 554.26"
/>
<path stroke="#98a193" vector-effect="non-scaling-stroke" d="
  M 331.10 554.26
  C 331.14 586.40 340.73 616.52 357.35 643.90
  Q 369.00 663.10 387.67 680.34
  Q 435.37 724.37 500.33 729.65
  A 0.83 0.82 -87.1 0 1 501.09 730.50
  Q 500.91 737.48 500.97 744.61
  Q 501.02 749.62 502.11 752.24
  C 504.68 758.43 512.00 761.87 517.74 757.21
  Q 522.29 753.51 522.45 749.00
  Q 522.79 739.63 522.65 730.34
  A 0.98 0.97 87.5 0 1 523.55 729.35
  Q 561.44 726.65 595.55 708.78"
/>
<path stroke="#858f86" vector-effect="non-scaling-stroke" d="
  M 595.55 708.78
  Q 602.41 705.49 612.86 698.38
  Q 668.69 660.47 686.53 596.24
  Q 689.10 587.02 690.07 580.26"
/>
<path stroke="#98a193" vector-effect="non-scaling-stroke" d="
  M 690.07 580.26
  L 692.20 562.94"
/>
<path stroke="#858f86" vector-effect="non-scaling-stroke" d="
  M 692.20 562.94
  Q 693.79 534.75 687.17 507.61"
/>
<path stroke="#f9ece1" vector-effect="non-scaling-stroke" d="
  M 687.17 507.61
  Q 698.24 501.46 709.06 495.57
  C 711.68 494.15 713.72 491.12 713.73 487.96
  Q 713.77 479.68 705.02 477.71
  Q 703.05 477.26 700.62 478.69
  Q 700.17 478.96 699.81 478.57
  Q 699.48 478.19 699.71 477.56"
/>
<path stroke="#858f86" vector-effect="non-scaling-stroke" d="
  M 699.71 477.56
  Q 706.60 473.63 718.94 466.16
  C 730.21 459.35 725.09 441.79 712.34 444.29
  Q 709.12 444.93 702.51 448.98
  Q 688.49 457.59 674.50 465.59"
/>
<path stroke="#98a193" vector-effect="non-scaling-stroke" d="
  M 674.50 465.59
  Q 657.96 427.95 632.91 395.55
  Q 609.96 365.87 579.16 336.84
  Q 549.94 309.32 521.39 288.71
  Q 516.21 284.98 515.71 284.72
  C 508.37 280.98 502.48 287.87 497.19 291.81"
/>
<path stroke="#1e3a2c" vector-effect="non-scaling-stroke" d="
  M 674.50 465.59
  L 655.72 476.78"
/>
<path stroke="#198d54" vector-effect="non-scaling-stroke" d="
  M 655.72 476.78
  Q 646.54 454.42 633.94 434.95
  C 622.87 417.87 609.89 400.21 596.95 385.76
  Q 575.92 362.28 563.89 351.61
  Q 544.41 334.34 523.67 316.76
  Q 521.97 315.32 521.98 317.54
  Q 522.37 397.44 522.13 478.53
  C 522.12 481.69 522.44 485.16 522.53 488.43
  A 0.48 0.48 0.0 0 0 523.32 488.78
  Q 554.05 462.68 587.49 440.07
  C 590.55 438.00 593.42 435.81 596.35 433.63
  Q 602.55 429.03 603.00 428.79
  C 616.31 422.00 626.09 440.61 613.33 448.56
  C 602.74 455.16 592.33 462.98 582.85 469.85
  Q 552.67 491.71 524.03 515.55
  Q 522.30 517.00 522.26 519.50
  Q 522.05 535.72 522.15 543.66"
/>
<path stroke="#1e3a2c" vector-effect="non-scaling-stroke" d="
  M 522.15 543.66
  Q 512.65 540.81 503.41 542.61
  Q 502.91 542.71 502.91 542.21
  L 502.98 487.24
  Q 502.98 486.67 502.43 486.82
  L 501.71 487.02"
/>
<path stroke="#5d986c" vector-effect="non-scaling-stroke" d="
  M 501.71 487.02
  Q 501.75 476.22 501.40 465.50
  Q 501.34 463.66 500.08 462.67
  Q 468.94 438.27 438.48 413.01
  C 433.13 408.58 429.74 402.93 434.32 396.50
  C 439.01 389.92 447.30 391.89 452.74 396.49
  Q 471.17 412.07 494.12 430.39
  Q 496.47 432.27 499.84 434.06
  A 0.77 0.77 0.0 0 0 500.97 433.39
  L 501.78 316.15"
/>
<path stroke="#1e3a2c" vector-effect="non-scaling-stroke" d="
  M 501.78 316.15
  L 503.02 315.94
  A 1.20 1.20 0.0 0 0 503.66 315.62
  Q 508.04 311.61 513.94 312.05
  C 515.69 312.18 517.04 313.40 518.74 314.04
  A 0.38 0.37 -15.2 0 0 519.11 313.40
  L 513.33 308.68
  A 2.46 2.45 -42.2 0 0 510.42 308.54
  Q 505.37 311.91 500.57 314.93
  Q 496.14 317.71 492.50 321.05
  Q 479.00 333.44 474.35 336.97
  Q 472.08 338.70 470.49 340.39
  Q 468.49 342.53 466.74 343.80
  Q 461.58 347.52 458.44 352.62"
/>
<path stroke="#5d986c" vector-effect="non-scaling-stroke" d="
  M 458.44 352.62
  L 428.73 383.20"
/>
<path stroke="#1e3a2c" vector-effect="non-scaling-stroke" d="
  M 428.73 383.20
  Q 429.21 381.99 427.57 382.56
  Q 427.04 382.74 426.66 383.24
  C 423.79 386.93 420.16 390.39 417.56 393.75
  Q 412.47 400.31 410.69 402.96
  Q 410.12 403.81 411.13 404.21"
/>
<path stroke="#5d986c" vector-effect="non-scaling-stroke" d="
  M 411.13 404.21
  Q 391.91 428.79 376.84 456.09
  Q 375.85 457.89 373.79 462.39"
/>
<path stroke="#1e3a2c" vector-effect="non-scaling-stroke" d="
  M 373.79 462.39
  L 356.25 450.50"
/>
<path stroke="#1e3a2c" vector-effect="non-scaling-stroke" d="
  M 375.80 416.44
  Q 381.61 410.73 385.87 403.78
  C 387.67 400.84 390.37 398.30 392.44 395.45
  Q 395.97 390.59 397.23 389.12
  Q 405.41 379.53 413.31 369.71
  Q 417.65 364.30 424.13 357.88
  Q 435.94 346.19 446.39 336.67
  Q 449.54 333.79 461.09 323.13
  Q 478.45 307.10 498.09 292.79
  A 0.67 0.59 66.1 0 0 498.31 292.10
  Q 498.23 291.81 497.19 291.81"
/>
<path stroke="#7f857a" vector-effect="non-scaling-stroke" d="
  M 699.71 477.56
  L 681.68 487.98
  Q 681.20 488.26 681.36 488.78
  L 687.17 507.61"
/>
<path stroke="#1e3a2c" vector-effect="non-scaling-stroke" d="
  M 692.20 562.94
  Q 691.66 563.48 691.96 564.62
  Q 691.97 564.63 691.92 564.63
  Q 691.90 564.64 691.87 564.65
  Q 691.82 564.67 691.84 564.61
  Q 692.21 563.57 691.58 562.81
  Q 691.26 562.43 691.26 561.94
  Q 691.18 553.83 691.02 545.72
  Q 690.93 541.72 690.07 536.36
  Q 689.32 531.69 688.94 526.99
  Q 688.62 523.07 687.64 518.70
  Q 686.72 514.57 686.28 510.40
  A 1.04 1.04 0.0 0 0 684.77 509.58
  L 667.15 518.71"
/>
<path stroke="#066e40" vector-effect="non-scaling-stroke" d="
  M 667.15 518.71
  L 662.56 499.93
  Q 662.23 498.59 661.05 499.29
  L 537.80 572.13
  Q 537.36 572.39 537.15 572.85
  C 535.59 576.10 534.42 579.74 532.39 582.38
  Q 528.48 587.47 522.84 590.78
  A 0.93 0.91 75.3 0 0 522.40 591.55
  L 522.02 611.74"
/>
<path stroke="#067b47" vector-effect="non-scaling-stroke" d="
  M 522.02 611.74
  Q 521.92 612.18 522.00 612.42"
/>
<path stroke="#1e3a2c" vector-effect="non-scaling-stroke" d="
  M 522.00 612.42
  L 521.63 613.81
  A 0.29 0.28 48.7 0 1 521.07 613.77
  L 520.89 612.43
  Q 520.81 611.85 520.21 611.87
  Q 514.84 612.09 509.63 610.76
  Q 509.21 610.66 508.93 610.33
  Q 508.45 609.77 507.74 609.85
  Q 507.23 609.92 506.77 609.69
  L 502.39 607.51
  A 1.24 1.24 0.0 0 0 501.69 607.38
  Q 500.87 607.46 500.84 606.92"
/>
<path stroke="#4a865f" vector-effect="non-scaling-stroke" d="
  M 500.84 606.92
  Q 501.28 599.25 500.88 591.96
  C 500.79 590.20 499.90 589.90 498.43 589.34"
/>
<path stroke="#3e7251" vector-effect="non-scaling-stroke" d="
  M 498.43 589.34
  Q 486.70 581.08 487.64 565.23
  C 487.74 563.37 486.17 563.13 485.04 562.41
  Q 429.92 527.00 375.57 490.41
  Q 372.36 488.25 369.45 486.72"
/>
<path stroke="#858f86" vector-effect="non-scaling-stroke" d="
  M 369.45 486.72
  Q 367.11 484.48 364.71 484.11
  Q 364.19 484.03 364.03 484.52
  L 361.51 492.07"
/>
<path stroke="#3e7251" vector-effect="non-scaling-stroke" d="
  M 361.51 492.07
  L 358.55 502.92"
/>
<path stroke="#4a865f" vector-effect="non-scaling-stroke" d="
  M 358.55 502.92
  Q 353.44 521.91 353.06 541.45"
/>
<path stroke="#1e3a2c" vector-effect="non-scaling-stroke" d="
  M 353.06 541.45
  Q 351.62 542.56 351.90 540.58
  C 352.37 537.24 351.68 533.77 352.30 530.26
  Q 353.52 523.30 353.54 523.15
  Q 354.72 513.85 356.48 504.65
  A 2.27 2.27 0.0 0 0 355.45 502.30
  L 340.88 493.13
  A 0.48 0.47 26.2 0 0 340.18 493.36
  C 336.89 502.39 335.41 512.70 334.09 522.18
  C 332.72 532.05 332.93 544.01 331.97 555.13
  A 0.34 0.33 -49.2 0 1 331.31 555.18
  L 331.10 554.26"
/>
<path stroke="#7f857a" vector-effect="non-scaling-stroke" d="
  M 343.42 470.44
  L 325.67 459.00"
/>
<path stroke="#4a865f" vector-effect="non-scaling-stroke" d="
  M 501.71 487.02
  L 501.25 543.97
  A 1.11 1.10 16.5 0 1 499.55 544.89
  Q 451.21 513.77 402.95 482.05
  Q 381.29 467.81 373.79 462.39"
/>
<path stroke="#4a865f" vector-effect="non-scaling-stroke" d="
  M 411.13 404.21
  L 428.73 383.20"
/>
<path stroke="#067b47" vector-effect="non-scaling-stroke" d="
  M 655.72 476.78
  L 531.56 550.57
  Q 531.09 550.85 530.67 550.51
  L 522.15 543.66"
/>
<path stroke="#4a865f" vector-effect="non-scaling-stroke" d="
  M 501.78 316.15
  Q 498.95 317.37 497.02 318.97
  Q 477.42 335.20 458.44 352.62"
/>
<path stroke="#5d986c" vector-effect="non-scaling-stroke" d="
  M 353.06 541.45
  C 347.80 628.73 415.18 700.40 500.66 707.45
  Q 500.95 707.47 500.96 707.17
  Q 501.94 673.31 501.60 639.62
  C 501.58 637.61 501.63 636.37 499.95 635.00
  C 487.82 625.14 475.01 616.33 462.48 607.00
  C 439.28 589.72 414.81 573.78 390.66 557.84
  C 385.01 554.11 376.75 547.86 379.09 540.13
  Q 380.30 536.13 384.08 533.86
  Q 390.07 530.25 397.02 535.00
  Q 460.18 578.18 500.84 606.92"
/>
<path stroke="#198d54" vector-effect="non-scaling-stroke" d="
  M 522.00 612.42
  L 522.63 651.45
  A 0.52 0.51 70.5 0 0 523.46 651.85
  Q 551.51 629.81 580.57 610.16
  C 592.59 602.04 606.33 594.42 619.14 586.40
  C 623.73 583.53 630.27 584.07 633.81 588.27
  C 637.01 592.06 637.07 598.13 633.98 602.09
  Q 632.73 603.69 628.99 605.71
  Q 623.28 608.79 617.76 612.23
  Q 586.65 631.63 556.96 653.18
  Q 547.36 660.14 523.85 679.65"
/>
<path stroke="#51845e" vector-effect="non-scaling-stroke" d="
  M 523.85 679.65
  Q 521.99 680.42 522.26 683.09"
/>
<path stroke="#198d54" vector-effect="non-scaling-stroke" d="
  M 522.26 683.09
  L 522.27 705.91
  Q 522.27 707.38 523.73 707.27
  Q 566.96 704.07 603.07 678.82
  Q 644.06 650.16 660.79 605.20
  C 670.48 579.17 673.91 551.27 668.18 524.08"
/>
<path stroke="#19804d" vector-effect="non-scaling-stroke" d="
  M 668.18 524.08
  L 667.15 518.71"
/>
<path stroke="#1e3a2c" vector-effect="non-scaling-stroke" d="
  M 690.07 580.26
  L 689.81 579.26
  A 0.55 0.55 0.0 0 0 688.73 579.32
  Q 687.86 585.96 686.15 592.19
  Q 684.40 598.57 682.27 604.86
  C 681.85 606.12 681.49 608.07 680.78 609.53
  Q 679.53 612.07 679.26 612.84
  Q 675.24 624.32 668.31 635.84
  Q 659.94 649.76 652.59 659.85
  Q 651.79 660.95 649.63 662.52
  Q 647.89 663.79 646.73 665.18
  Q 642.70 669.95 638.52 674.60
  Q 637.35 675.89 635.19 677.60
  C 632.24 679.94 629.34 683.47 627.15 685.39
  Q 623.40 688.69 619.76 692.10
  C 618.94 692.86 617.81 692.61 616.82 693.44
  Q 613.39 696.34 609.45 698.52
  C 608.60 698.99 608.19 699.59 607.69 700.38
  Q 607.42 700.81 606.95 701.02
  Q 603.56 702.60 600.17 704.21
  C 597.88 705.29 595.89 705.46 594.21 707.91
  Q 593.79 708.51 594.52 708.63
  L 595.55 708.78"
/>
<path stroke="#b8d9b7" vector-effect="non-scaling-stroke" d="
  M 369.45 486.72
  L 365.08 486.38
  Q 364.49 486.33 364.22 486.86
  L 361.51 492.07"
/>
<path stroke="#7dd091" vector-effect="non-scaling-stroke" d="
  M 498.43 589.34
  Q 501.12 594.94 500.15 600.98
  A 1.71 1.71 0.0 0 1 498.56 602.41
  C 494.11 602.66 486.28 594.89 483.27 591.78
  C 479.18 587.55 477.88 581.51 474.28 577.41
  Q 471.90 574.70 468.87 572.88
  Q 450.39 561.81 435.03 551.89
  C 431.12 549.37 426.32 546.83 422.80 544.42
  Q 389.74 521.82 379.52 515.93
  Q 370.30 510.61 361.24 505.04
  Q 360.86 504.81 360.61 504.44
  L 359.77 503.22
  Q 359.56 502.92 359.32 503.18
  Q 359.21 503.30 359.09 503.40
  Q 358.75 503.69 358.62 503.27
  Q 358.58 503.12 358.55 502.92"
/>
<path stroke="#00c068" vector-effect="non-scaling-stroke" d="
  M 668.18 524.08
  L 665.35 519.96
  Q 665.05 519.52 664.60 519.80
  C 641.14 534.20 616.55 546.69 593.52 561.79
  C 590.88 563.52 587.56 564.97 585.25 566.46
  Q 575.03 573.02 564.61 579.25
  C 552.73 586.34 541.33 594.73 529.43 602.18
  Q 529.21 602.32 526.18 603.81
  Q 524.61 604.58 523.24 605.67
  A 1.06 1.06 0.0 0 0 522.84 606.56
  Q 522.99 609.36 522.02 611.74"
/>
<path stroke="#38c479" vector-effect="non-scaling-stroke" d="
  M 522.26 683.09
  Q 523.83 681.63 523.85 679.65"
/>
<path stroke="#858f86" vector-effect="non-scaling-stroke" d="
  M 277.1147 394.5628
  A 10.39 10.39 0.0 0 0 273.9094 380.2230
  L 240.5416 359.0471
  A 10.39 10.39 0.0 0 0 226.2018 362.2524
  L 225.8053 362.8772
  A 10.39 10.39 0.0 0 0 229.0106 377.2170
  L 262.3784 398.3929
  A 10.39 10.39 0.0 0 0 276.7182 395.1876
  L 277.1147 394.5628"
/>
<path stroke="#858f86" vector-effect="non-scaling-stroke" d="
  M 797.5002 362.1621
  A 10.34 10.34 0.0 0 0 783.2520 358.8726
  L 749.0417 380.2496
  A 10.34 10.34 0.0 0 0 745.7523 394.4977
  L 746.2398 395.2779
  A 10.34 10.34 0.0 0 0 760.4880 398.5674
  L 794.6983 377.1904
  A 10.34 10.34 0.0 0 0 797.9877 362.9423
  L 797.5002 362.1621"
/>
<path stroke="#858f86" vector-effect="non-scaling-stroke" d="
  M 247.3988 515.3281
  A 9.76 9.76 0.0 0 0 237.6218 505.5852
  L 197.7218 505.6548
  A 9.76 9.76 0.0 0 0 187.9789 515.4319
  L 187.9812 516.7519
  A 9.76 9.76 0.0 0 0 197.7582 526.4948
  L 237.6582 526.4252
  A 9.76 9.76 0.0 0 0 247.4011 516.6481
  L 247.3988 515.3281"
/>
<path stroke="#858f86" vector-effect="non-scaling-stroke" d="
  M 835.9137 515.0591
  A 9.67 9.67 0.0 0 0 826.1765 505.4569
  L 785.0975 505.7436
  A 9.67 9.67 0.0 0 0 775.4952 515.4809
  L 775.5063 517.0609
  A 9.67 9.67 0.0 0 0 785.2435 526.6631
  L 826.3225 526.3764
  A 9.67 9.67 0.0 0 0 835.9248 516.6391
  L 835.9137 515.0591"
/>
<path stroke="#858f86" vector-effect="non-scaling-stroke" d="
  M 756.45 632.57
  C 745.74 630.32 740.33 644.19 747.88 651.11
  C 751.93 654.83 758.43 657.79 762.68 660.69
  Q 777.17 670.58 783.11 673.65
  C 793.23 678.87 803.87 666.61 796.97 657.69
  Q 795.36 655.59 789.84 652.12
  Q 777.37 644.27 764.78 636.59
  Q 759.13 633.14 756.45 632.57"
/>
<path stroke="#858f86" vector-effect="non-scaling-stroke" d="
  M 277.90 647.34
  C 280.95 640.23 276.54 632.45 268.56 632.57
  Q 265.79 632.61 261.41 635.20
  Q 246.00 644.36 230.71 653.70
  C 224.43 657.54 222.56 663.31 226.15 669.85
  Q 229.31 675.60 235.80 674.75
  Q 239.12 674.31 244.76 670.80
  Q 255.89 663.88 267.09 657.13
  C 272.73 653.73 275.75 652.31 277.90 647.34"
/>
<path stroke="#858f86" vector-effect="non-scaling-stroke" d="
  M 384.2377 756.9850
  A 10.33 10.33 0.0 0 0 381.8768 742.5682
  L 381.3896 742.2181
  A 10.33 10.33 0.0 0 0 366.9728 744.5789
  L 342.2423 778.9950
  A 10.33 10.33 0.0 0 0 344.6032 793.4118
  L 345.0904 793.7619
  A 10.33 10.33 0.0 0 0 359.5072 791.4011
  L 384.2377 756.9850"
/>
<path stroke="#858f86" vector-effect="non-scaling-stroke" d="
  M 656.6768 744.3538
  A 10.11 10.11 0.0 0 0 642.6006 741.8464
  L 641.6000 742.5444
  A 10.11 10.11 0.0 0 0 639.0927 756.6206
  L 663.4432 791.5262
  A 10.11 10.11 0.0 0 0 677.5194 794.0336
  L 678.5200 793.3356
  A 10.11 10.11 0.0 0 0 681.0273 779.2594
  L 656.6768 744.3538"
/>
<path stroke="#858f86" vector-effect="non-scaling-stroke" d="
  M 522.2053 790.8783
  A 10.09 10.09 0.0 0 0 512.1330 780.7707
  L 511.3730 780.7694
  A 10.09 10.09 0.0 0 0 501.2654 790.8418
  L 501.1947 831.3617
  A 10.09 10.09 0.0 0 0 511.2670 841.4693
  L 512.0270 841.4706
  A 10.09 10.09 0.0 0 0 522.1346 831.3982
  L 522.2053 790.8783"
/>
</g>
<path fill="#ffffff" d="
  M 0.00 0.00
  L 1024.00 0.00
  L 1024.00 1024.00
  L 0.00 1024.00
  L 0.00 0.00
  Z
  M 187.67 365.93
  Q 163.45 418.75 156.94 478.31
  Q 155.96 487.26 155.86 498.26
  C 155.70 515.40 155.12 533.15 156.83 549.96
  C 163.51 615.39 186.14 679.19 226.46 731.81
  Q 260.68 776.48 305.37 809.15
  C 327.15 825.08 350.98 837.40 376.96 848.76
  C 410.58 863.46 446.68 871.92 483.10 875.68
  C 488.57 876.24 495.84 876.32 502.75 876.93
  Q 510.05 877.58 519.28 876.98
  Q 529.65 876.30 533.27 876.13
  Q 541.27 875.75 547.24 874.96
  Q 561.08 873.12 579.05 869.77
  Q 589.74 867.77 598.55 865.37
  Q 695.63 838.90 766.61 767.66
  C 771.83 762.43 777.07 756.20 782.79 749.79
  Q 807.13 722.55 826.64 686.47
  Q 834.18 672.54 840.87 655.60
  Q 870.29 581.17 868.09 501.71
  C 867.98 498.07 867.29 493.88 867.11 489.92
  Q 866.78 483.01 866.59 481.10
  C 863.70 452.19 857.76 426.84 850.16 402.76
  Q 841.26 374.60 825.85 346.31
  Q 809.47 316.24 792.71 294.78
  Q 777.75 275.61 755.41 254.14
  Q 753.70 252.49 750.33 249.65
  C 746.00 246.00 741.60 241.38 737.77 238.32
  Q 717.87 222.47 696.31 208.97
  Q 625.80 164.80 543.20 156.84
  Q 534.67 156.02 523.24 155.94
  C 508.26 155.84 492.86 155.07 478.18 156.86
  C 435.37 162.05 393.14 173.12 354.66 193.48
  C 348.34 196.83 341.10 200.38 335.69 203.48
  Q 300.00 223.91 273.26 249.52
  Q 256.65 265.43 241.50 282.74
  Q 208.54 320.40 187.67 365.93
  Z"
/>
<g fill="#314c39">
<path d="
  M 187.67 365.93
  Q 208.54 320.40 241.50 282.74
  Q 256.65 265.43 273.26 249.52
  Q 300.00 223.91 335.69 203.48
  C 341.10 200.38 348.34 196.83 354.66 193.48
  C 393.14 173.12 435.37 162.05 478.18 156.86
  C 492.86 155.07 508.26 155.84 523.24 155.94
  Q 534.67 156.02 543.20 156.84
  Q 625.80 164.80 696.31 208.97
  Q 717.87 222.47 737.77 238.32
  C 741.60 241.38 746.00 246.00 750.33 249.65
  Q 753.70 252.49 755.41 254.14
  Q 777.75 275.61 792.71 294.78
  Q 809.47 316.24 825.85 346.31
  Q 841.26 374.60 850.16 402.76
  C 857.76 426.84 863.70 452.19 866.59 481.10
  Q 866.78 483.01 867.11 489.92
  C 867.29 493.88 867.98 498.07 868.09 501.71
  Q 870.29 581.17 840.87 655.60
  Q 834.18 672.54 826.64 686.47
  Q 807.13 722.55 782.79 749.79
  C 777.07 756.20 771.83 762.43 766.61 767.66
  Q 695.63 838.90 598.55 865.37
  Q 589.74 867.77 579.05 869.77
  Q 561.08 873.12 547.24 874.96
  Q 541.27 875.75 533.27 876.13
  Q 529.65 876.30 519.28 876.98
  Q 510.05 877.58 502.75 876.93
  C 495.84 876.32 488.57 876.24 483.10 875.68
  C 446.68 871.92 410.58 863.46 376.96 848.76
  C 350.98 837.40 327.15 825.08 305.37 809.15
  Q 260.68 776.48 226.46 731.81
  C 186.14 679.19 163.51 615.39 156.83 549.96
  C 155.12 533.15 155.70 515.40 155.86 498.26
  Q 155.96 487.26 156.94 478.31
  Q 163.45 418.75 187.67 365.93
  Z
  M 481.73 178.14
  C 440.60 182.65 400.33 193.47 363.54 212.58
  L 364.24 211.51
  Q 364.55 211.03 363.98 211.10
  Q 361.62 211.36 359.86 212.97
  Q 359.47 213.33 358.94 213.34
  Q 358.33 213.36 357.76 213.65
  Q 348.60 218.41 339.72 223.70
  C 338.21 224.61 336.08 224.97 334.65 226.96
  Q 334.36 227.37 333.90 227.54
  Q 331.44 228.49 329.34 229.98
  Q 326.70 231.86 325.10 232.76
  Q 320.96 235.08 317.37 238.26
  Q 312.95 242.19 308.49 246.10
  Q 306.89 247.51 303.94 249.20
  Q 301.52 250.58 299.39 252.39
  Q 294.19 256.78 289.06 261.24
  Q 285.01 264.77 279.31 270.67
  C 274.68 275.45 269.42 280.11 265.26 284.80
  Q 251.32 300.54 238.68 317.36
  C 235.59 321.48 232.10 327.31 228.34 332.01
  C 226.80 333.94 225.59 336.30 224.00 338.33
  Q 221.57 341.40 220.67 342.97
  C 215.52 351.88 211.74 361.28 206.93 370.33
  Q 204.91 374.12 203.46 377.87
  Q 199.98 386.88 196.40 395.84
  C 195.69 397.62 195.62 399.55 194.74 401.38
  Q 192.60 405.83 191.36 410.58
  Q 188.98 419.70 188.95 419.81
  Q 186.32 428.54 182.36 443.87
  Q 181.99 445.31 181.88 446.28
  Q 181.69 448.03 181.49 448.64
  Q 179.62 454.29 178.89 460.18
  Q 178.06 466.95 178.05 467.02
  Q 177.20 472.86 176.60 478.74
  C 176.44 480.26 175.69 481.80 175.63 483.75
  Q 174.82 510.80 175.04 530.50
  Q 175.07 533.24 176.46 534.28
  Q 180.76 588.17 199.34 638.96
  C 214.36 680.03 239.30 717.83 269.37 749.12
  Q 344.23 827.02 450.74 849.11
  Q 498.00 858.90 544.24 853.72
  Q 631.27 843.97 703.37 793.26
  Q 703.31 793.55 703.39 793.78
  Q 703.60 794.31 704.08 793.99
  C 720.00 783.41 733.55 770.66 747.84 757.48
  Q 758.43 747.71 763.46 741.59
  Q 771.01 732.41 778.89 723.51
  Q 779.13 723.24 779.16 722.82
  A 1.06 1.01 67.9 0 1 779.40 722.21
  Q 783.18 717.73 786.67 713.02
  C 788.14 711.02 790.99 707.83 792.64 704.73
  C 793.40 703.31 794.70 702.48 795.39 701.00
  Q 796.48 698.64 796.52 698.57
  Q 802.79 687.95 809.15 677.39
  Q 813.09 670.83 819.97 654.96
  Q 823.33 647.23 826.92 636.22
  Q 830.41 625.50 834.27 614.89
  Q 835.55 611.38 836.76 605.77
  Q 837.05 604.42 837.87 602.84
  C 839.26 600.19 839.05 596.61 839.41 593.65
  Q 839.43 593.54 839.53 593.49
  Q 839.65 593.43 839.78 593.39
  Q 840.07 593.28 840.15 592.98
  Q 840.93 589.77 841.08 585.25
  Q 841.09 584.95 841.40 584.89
  Q 841.73 584.83 841.79 584.50
  Q 842.43 581.05 842.93 577.58
  C 843.47 573.76 844.93 568.06 844.59 562.84
  Q 844.56 562.37 844.96 562.10
  Q 845.64 561.64 845.88 560.49
  Q 846.84 555.93 847.11 552.03
  Q 847.51 546.35 847.88 543.58
  Q 848.35 539.97 848.47 536.33
  C 848.55 534.12 849.44 531.56 849.24 529.04
  Q 849.01 526.08 849.00 525.95
  Q 848.79 513.46 848.38 500.88
  A 0.95 0.94 77.6 0 0 847.07 500.04
  Q 846.90 500.11 846.78 501.25
  Q 845.79 469.37 837.37 435.13
  Q 829.42 402.83 817.19 376.28
  C 795.83 329.90 763.16 286.78 722.93 254.26
  Q 707.33 241.64 696.55 234.43
  Q 624.03 185.90 536.67 177.91
  L 537.43 177.63
  Q 537.60 177.57 537.47 177.45
  L 537.11 177.11
  Q 536.80 176.82 536.38 176.78
  Q 512.93 174.63 489.42 175.87
  C 486.46 176.02 483.76 176.71 480.92 177.37
  Q 480.81 177.39 480.76 177.49
  Q 480.68 177.64 480.61 177.78
  A 0.18 0.17 -80.0 0 0 480.78 178.03
  Q 481.32 177.97 481.73 178.14
  Z"
/>
<path d="
  M 674.50 465.59
  L 655.72 476.78
  Q 646.54 454.42 633.94 434.95
  C 622.87 417.87 609.89 400.21 596.95 385.76
  Q 575.92 362.28 563.89 351.61
  Q 544.41 334.34 523.67 316.76
  Q 521.97 315.32 521.98 317.54
  Q 522.37 397.44 522.13 478.53
  C 522.12 481.69 522.44 485.16 522.53 488.43
  A 0.48 0.48 0.0 0 0 523.32 488.78
  Q 554.05 462.68 587.49 440.07
  C 590.55 438.00 593.42 435.81 596.35 433.63
  Q 602.55 429.03 603.00 428.79
  C 616.31 422.00 626.09 440.61 613.33 448.56
  C 602.74 455.16 592.33 462.98 582.85 469.85
  Q 552.67 491.71 524.03 515.55
  Q 522.30 517.00 522.26 519.50
  Q 522.05 535.72 522.15 543.66
  Q 512.65 540.81 503.41 542.61
  Q 502.91 542.71 502.91 542.21
  L 502.98 487.24
  Q 502.98 486.67 502.43 486.82
  L 501.71 487.02
  Q 501.75 476.22 501.40 465.50
  Q 501.34 463.66 500.08 462.67
  Q 468.94 438.27 438.48 413.01
  C 433.13 408.58 429.74 402.93 434.32 396.50
  C 439.01 389.92 447.30 391.89 452.74 396.49
  Q 471.17 412.07 494.12 430.39
  Q 496.47 432.27 499.84 434.06
  A 0.77 0.77 0.0 0 0 500.97 433.39
  L 501.78 316.15
  L 503.02 315.94
  A 1.20 1.20 0.0 0 0 503.66 315.62
  Q 508.04 311.61 513.94 312.05
  C 515.69 312.18 517.04 313.40 518.74 314.04
  A 0.38 0.37 -15.2 0 0 519.11 313.40
  L 513.33 308.68
  A 2.46 2.45 -42.2 0 0 510.42 308.54
  Q 505.37 311.91 500.57 314.93
  Q 496.14 317.71 492.50 321.05
  Q 479.00 333.44 474.35 336.97
  Q 472.08 338.70 470.49 340.39
  Q 468.49 342.53 466.74 343.80
  Q 461.58 347.52 458.44 352.62
  L 428.73 383.20
  Q 429.21 381.99 427.57 382.56
  Q 427.04 382.74 426.66 383.24
  C 423.79 386.93 420.16 390.39 417.56 393.75
  Q 412.47 400.31 410.69 402.96
  Q 410.12 403.81 411.13 404.21
  Q 391.91 428.79 376.84 456.09
  Q 375.85 457.89 373.79 462.39
  L 356.25 450.50
  Q 364.73 432.44 375.80 416.44
  Q 381.61 410.73 385.87 403.78
  C 387.67 400.84 390.37 398.30 392.44 395.45
  Q 395.97 390.59 397.23 389.12
  Q 405.41 379.53 413.31 369.71
  Q 417.65 364.30 424.13 357.88
  Q 435.94 346.19 446.39 336.67
  Q 449.54 333.79 461.09 323.13
  Q 478.45 307.10 498.09 292.79
  A 0.67 0.59 66.1 0 0 498.31 292.10
  Q 498.23 291.81 497.19 291.81
  C 502.48 287.87 508.37 280.98 515.71 284.72
  Q 516.21 284.98 521.39 288.71
  Q 549.94 309.32 579.16 336.84
  Q 609.96 365.87 632.91 395.55
  Q 657.96 427.95 674.50 465.59
  Z"
/>
<path d="
  M 353.06 541.45
  C 347.80 628.73 415.18 700.40 500.66 707.45
  Q 500.95 707.47 500.96 707.17
  Q 501.94 673.31 501.60 639.62
  C 501.58 637.61 501.63 636.37 499.95 635.00
  C 487.82 625.14 475.01 616.33 462.48 607.00
  C 439.28 589.72 414.81 573.78 390.66 557.84
  C 385.01 554.11 376.75 547.86 379.09 540.13
  Q 380.30 536.13 384.08 533.86
  Q 390.07 530.25 397.02 535.00
  Q 460.18 578.18 500.84 606.92
  Q 500.87 607.46 501.69 607.38
  A 1.24 1.24 0.0 0 1 502.39 607.51
  L 506.77 609.69
  Q 507.23 609.92 507.74 609.85
  Q 508.45 609.77 508.93 610.33
  Q 509.21 610.66 509.63 610.76
  Q 514.84 612.09 520.21 611.87
  Q 520.81 611.85 520.89 612.43
  L 521.07 613.77
  A 0.29 0.28 48.7 0 0 521.63 613.81
  L 522.00 612.42
  L 522.63 651.45
  A 0.52 0.51 70.5 0 0 523.46 651.85
  Q 551.51 629.81 580.57 610.16
  C 592.59 602.04 606.33 594.42 619.14 586.40
  C 623.73 583.53 630.27 584.07 633.81 588.27
  C 637.01 592.06 637.07 598.13 633.98 602.09
  Q 632.73 603.69 628.99 605.71
  Q 623.28 608.79 617.76 612.23
  Q 586.65 631.63 556.96 653.18
  Q 547.36 660.14 523.85 679.65
  Q 521.99 680.42 522.26 683.09
  L 522.27 705.91
  Q 522.27 707.38 523.73 707.27
  Q 566.96 704.07 603.07 678.82
  Q 644.06 650.16 660.79 605.20
  C 670.48 579.17 673.91 551.27 668.18 524.08
  L 667.15 518.71
  L 684.77 509.58
  A 1.04 1.04 0.0 0 1 686.28 510.40
  Q 686.72 514.57 687.64 518.70
  Q 688.62 523.07 688.94 526.99
  Q 689.32 531.69 690.07 536.36
  Q 690.93 541.72 691.02 545.72
  Q 691.18 553.83 691.26 561.94
  Q 691.26 562.43 691.58 562.81
  Q 692.21 563.57 691.84 564.61
  Q 691.82 564.67 691.87 564.65
  Q 691.90 564.64 691.92 564.63
  Q 691.97 564.63 691.96 564.62
  Q 691.66 563.48 692.20 562.94
  L 690.07 580.26
  L 689.81 579.26
  A 0.55 0.55 0.0 0 0 688.73 579.32
  Q 687.86 585.96 686.15 592.19
  Q 684.40 598.57 682.27 604.86
  C 681.85 606.12 681.49 608.07 680.78 609.53
  Q 679.53 612.07 679.26 612.84
  Q 675.24 624.32 668.31 635.84
  Q 659.94 649.76 652.59 659.85
  Q 651.79 660.95 649.63 662.52
  Q 647.89 663.79 646.73 665.18
  Q 642.70 669.95 638.52 674.60
  Q 637.35 675.89 635.19 677.60
  C 632.24 679.94 629.34 683.47 627.15 685.39
  Q 623.40 688.69 619.76 692.10
  C 618.94 692.86 617.81 692.61 616.82 693.44
  Q 613.39 696.34 609.45 698.52
  C 608.60 698.99 608.19 699.59 607.69 700.38
  Q 607.42 700.81 606.95 701.02
  Q 603.56 702.60 600.17 704.21
  C 597.88 705.29 595.89 705.46 594.21 707.91
  Q 593.79 708.51 594.52 708.63
  L 595.55 708.78
  Q 561.44 726.65 523.55 729.35
  A 0.98 0.97 87.5 0 0 522.65 730.34
  Q 522.79 739.63 522.45 749.00
  Q 522.29 753.51 517.74 757.21
  C 512.00 761.87 504.68 758.43 502.11 752.24
  Q 501.02 749.62 500.97 744.61
  Q 500.91 737.48 501.09 730.50
  A 0.83 0.82 -87.1 0 0 500.33 729.65
  Q 435.37 724.37 387.67 680.34
  Q 369.00 663.10 357.35 643.90
  C 340.73 616.52 331.14 586.40 331.10 554.26
  L 331.31 555.18
  A 0.34 0.33 -49.2 0 0 331.97 555.13
  C 332.93 544.01 332.72 532.05 334.09 522.18
  C 335.41 512.70 336.89 502.39 340.18 493.36
  A 0.48 0.47 26.2 0 1 340.88 493.13
  L 355.45 502.30
  A 2.27 2.27 0.0 0 1 356.48 504.65
  Q 354.72 513.85 353.54 523.15
  Q 353.52 523.30 352.30 530.26
  C 351.68 533.77 352.37 537.24 351.90 540.58
  Q 351.62 542.56 353.06 541.45
  Z"
/>
</g>
<g fill="#00cd6f">
<path d="
  M 655.72 476.78
  L 531.56 550.57
  Q 531.09 550.85 530.67 550.51
  L 522.15 543.66
  Q 522.05 535.72 522.26 519.50
  Q 522.30 517.00 524.03 515.55
  Q 552.67 491.71 582.85 469.85
  C 592.33 462.98 602.74 455.16 613.33 448.56
  C 626.09 440.61 616.31 422.00 603.00 428.79
  Q 602.55 429.03 596.35 433.63
  C 593.42 435.81 590.55 438.00 587.49 440.07
  Q 554.05 462.68 523.32 488.78
  A 0.48 0.48 0.0 0 1 522.53 488.43
  C 522.44 485.16 522.12 481.69 522.13 478.53
  Q 522.37 397.44 521.98 317.54
  Q 521.97 315.32 523.67 316.76
  Q 544.41 334.34 563.89 351.61
  Q 575.92 362.28 596.95 385.76
  C 609.89 400.21 622.87 417.87 633.94 434.95
  Q 646.54 454.42 655.72 476.78
  Z"
/>
<path d="
  M 668.18 524.08
  C 673.91 551.27 670.48 579.17 660.79 605.20
  Q 644.06 650.16 603.07 678.82
  Q 566.96 704.07 523.73 707.27
  Q 522.27 707.38 522.27 705.91
  L 522.26 683.09
  Q 523.83 681.63 523.85 679.65
  Q 547.36 660.14 556.96 653.18
  Q 586.65 631.63 617.76 612.23
  Q 623.28 608.79 628.99 605.71
  Q 632.73 603.69 633.98 602.09
  C 637.07 598.13 637.01 592.06 633.81 588.27
  C 630.27 584.07 623.73 583.53 619.14 586.40
  C 606.33 594.42 592.59 602.04 580.57 610.16
  Q 551.51 629.81 523.46 651.85
  A 0.52 0.51 70.5 0 1 522.63 651.45
  L 522.00 612.42
  Q 521.92 612.18 522.02 611.74
  Q 522.99 609.36 522.84 606.56
  A 1.06 1.06 0.0 0 1 523.24 605.67
  Q 524.61 604.58 526.18 603.81
  Q 529.21 602.32 529.43 602.18
  C 541.33 594.73 552.73 586.34 564.61 579.25
  Q 575.03 573.02 585.25 566.46
  C 587.56 564.97 590.88 563.52 593.52 561.79
  C 616.55 546.69 641.14 534.20 664.60 519.80
  Q 665.05 519.52 665.35 519.96
  L 668.18 524.08
  Z"
/>
</g>
<g fill="#fff6ec">
<path d="
  M 536.67 177.91
  Q 624.03 185.90 696.55 234.43
  Q 707.33 241.64 722.93 254.26
  C 763.16 286.78 795.83 329.90 817.19 376.28
  Q 829.42 402.83 837.37 435.13
  Q 845.79 469.37 846.78 501.25
  C 848.31 531.00 845.22 558.12 839.90 584.74
  Q 833.24 618.10 819.86 651.00
  Q 815.99 660.51 811.53 669.18
  C 786.24 718.35 748.53 760.81 703.37 793.26
  Q 631.27 843.97 544.24 853.72
  Q 498.00 858.90 450.74 849.11
  Q 344.23 827.02 269.37 749.12
  C 239.30 717.83 214.36 680.03 199.34 638.96
  Q 180.76 588.17 176.46 534.28
  Q 172.59 439.08 216.17 355.72
  C 223.24 342.20 233.02 328.12 241.67 316.42
  Q 278.51 266.59 330.99 231.30
  Q 342.40 223.63 363.54 212.58
  C 400.33 193.47 440.60 182.65 481.73 178.14
  Q 509.19 175.14 536.67 177.91
  Z
  M 515.21 190.12
  C 509.45 188.33 501.51 191.71 501.47 198.75
  Q 501.33 219.75 501.23 240.75
  C 501.20 246.56 503.71 252.24 509.82 253.31
  Q 514.14 254.07 517.69 250.92
  Q 522.06 247.04 522.10 240.00
  Q 522.20 221.04 522.01 202.09
  C 521.95 196.46 520.71 191.83 515.21 190.12
  Z
  M 369.50 290.72
  C 378.26 296.69 391.35 285.74 384.46 276.05
  Q 371.88 258.36 359.44 240.57
  C 353.04 231.42 339.08 238.74 341.53 249.02
  Q 342.20 251.79 345.95 257.37
  Q 354.90 270.67 363.88 283.94
  Q 367.57 289.40 369.50 290.72
  Z
  M 681.1636 253.2729
  A 10.31 10.31 0.0 0 0 678.7069 238.9008
  L 678.2662 238.5887
  A 10.31 10.31 0.0 0 0 663.8941 241.0454
  L 639.1964 275.9271
  A 10.31 10.31 0.0 0 0 641.6531 290.2992
  L 642.0938 290.6113
  A 10.31 10.31 0.0 0 0 656.4659 288.1546
  L 681.1636 253.2729
  Z
  M 497.19 291.81
  C 450.52 327.12 408.33 367.49 375.80 416.44
  Q 364.73 432.44 356.25 450.50
  Q 331.66 435.56 320.90 428.33
  Q 313.53 423.38 306.88 426.91
  C 301.93 429.55 299.13 435.43 301.58 440.69
  Q 303.63 445.09 306.30 446.73
  Q 315.96 452.68 325.67 459.00
  C 324.36 459.82 322.89 459.46 321.69 458.42
  C 314.61 452.27 305.12 452.96 304.54 464.01
  C 304.36 467.52 304.80 469.27 307.84 471.39
  Q 315.65 476.84 323.88 481.65
  C 328.30 484.24 332.33 487.31 336.57 490.13
  A 0.89 0.88 -63.8 0 0 337.91 489.67
  Q 340.01 483.21 342.17 476.39
  Q 342.58 475.09 343.66 473.39
  Q 343.93 472.97 343.73 472.51
  Q 343.24 471.39 343.42 470.44
  Q 344.53 470.63 345.00 471.07
  Q 345.42 471.48 345.05 472.47
  Q 330.20 511.94 331.10 554.26
  C 331.14 586.40 340.73 616.52 357.35 643.90
  Q 369.00 663.10 387.67 680.34
  Q 435.37 724.37 500.33 729.65
  A 0.83 0.82 -87.1 0 1 501.09 730.50
  Q 500.91 737.48 500.97 744.61
  Q 501.02 749.62 502.11 752.24
  C 504.68 758.43 512.00 761.87 517.74 757.21
  Q 522.29 753.51 522.45 749.00
  Q 522.79 739.63 522.65 730.34
  A 0.98 0.97 87.5 0 1 523.55 729.35
  Q 561.44 726.65 595.55 708.78
  Q 602.41 705.49 612.86 698.38
  Q 668.69 660.47 686.53 596.24
  Q 689.10 587.02 690.07 580.26
  L 692.20 562.94
  Q 693.79 534.75 687.17 507.61
  Q 698.24 501.46 709.06 495.57
  C 711.68 494.15 713.72 491.12 713.73 487.96
  Q 713.77 479.68 705.02 477.71
  Q 703.05 477.26 700.62 478.69
  Q 700.17 478.96 699.81 478.57
  Q 699.48 478.19 699.71 477.56
  Q 706.60 473.63 718.94 466.16
  C 730.21 459.35 725.09 441.79 712.34 444.29
  Q 709.12 444.93 702.51 448.98
  Q 688.49 457.59 674.50 465.59
  Q 657.96 427.95 632.91 395.55
  Q 609.96 365.87 579.16 336.84
  Q 549.94 309.32 521.39 288.71
  Q 516.21 284.98 515.71 284.72
  C 508.37 280.98 502.48 287.87 497.19 291.81
  Z
  M 277.1147 394.5628
  A 10.39 10.39 0.0 0 0 273.9094 380.2230
  L 240.5416 359.0471
  A 10.39 10.39 0.0 0 0 226.2018 362.2524
  L 225.8053 362.8772
  A 10.39 10.39 0.0 0 0 229.0106 377.2170
  L 262.3784 398.3929
  A 10.39 10.39 0.0 0 0 276.7182 395.1876
  L 277.1147 394.5628
  Z
  M 797.5002 362.1621
  A 10.34 10.34 0.0 0 0 783.2520 358.8726
  L 749.0417 380.2496
  A 10.34 10.34 0.0 0 0 745.7523 394.4977
  L 746.2398 395.2779
  A 10.34 10.34 0.0 0 0 760.4880 398.5674
  L 794.6983 377.1904
  A 10.34 10.34 0.0 0 0 797.9877 362.9423
  L 797.5002 362.1621
  Z
  M 247.3988 515.3281
  A 9.76 9.76 0.0 0 0 237.6218 505.5852
  L 197.7218 505.6548
  A 9.76 9.76 0.0 0 0 187.9789 515.4319
  L 187.9812 516.7519
  A 9.76 9.76 0.0 0 0 197.7582 526.4948
  L 237.6582 526.4252
  A 9.76 9.76 0.0 0 0 247.4011 516.6481
  L 247.3988 515.3281
  Z
  M 835.9137 515.0591
  A 9.67 9.67 0.0 0 0 826.1765 505.4569
  L 785.0975 505.7436
  A 9.67 9.67 0.0 0 0 775.4952 515.4809
  L 775.5063 517.0609
  A 9.67 9.67 0.0 0 0 785.2435 526.6631
  L 826.3225 526.3764
  A 9.67 9.67 0.0 0 0 835.9248 516.6391
  L 835.9137 515.0591
  Z
  M 756.45 632.57
  C 745.74 630.32 740.33 644.19 747.88 651.11
  C 751.93 654.83 758.43 657.79 762.68 660.69
  Q 777.17 670.58 783.11 673.65
  C 793.23 678.87 803.87 666.61 796.97 657.69
  Q 795.36 655.59 789.84 652.12
  Q 777.37 644.27 764.78 636.59
  Q 759.13 633.14 756.45 632.57
  Z
  M 277.90 647.34
  C 280.95 640.23 276.54 632.45 268.56 632.57
  Q 265.79 632.61 261.41 635.20
  Q 246.00 644.36 230.71 653.70
  C 224.43 657.54 222.56 663.31 226.15 669.85
  Q 229.31 675.60 235.80 674.75
  Q 239.12 674.31 244.76 670.80
  Q 255.89 663.88 267.09 657.13
  C 272.73 653.73 275.75 652.31 277.90 647.34
  Z
  M 384.2377 756.9850
  A 10.33 10.33 0.0 0 0 381.8768 742.5682
  L 381.3896 742.2181
  A 10.33 10.33 0.0 0 0 366.9728 744.5789
  L 342.2423 778.9950
  A 10.33 10.33 0.0 0 0 344.6032 793.4118
  L 345.0904 793.7619
  A 10.33 10.33 0.0 0 0 359.5072 791.4011
  L 384.2377 756.9850
  Z
  M 656.6768 744.3538
  A 10.11 10.11 0.0 0 0 642.6006 741.8464
  L 641.6000 742.5444
  A 10.11 10.11 0.0 0 0 639.0927 756.6206
  L 663.4432 791.5262
  A 10.11 10.11 0.0 0 0 677.5194 794.0336
  L 678.5200 793.3356
  A 10.11 10.11 0.0 0 0 681.0273 779.2594
  L 656.6768 744.3538
  Z
  M 522.2053 790.8783
  A 10.09 10.09 0.0 0 0 512.1330 780.7707
  L 511.3730 780.7694
  A 10.09 10.09 0.0 0 0 501.2654 790.8418
  L 501.1947 831.3617
  A 10.09 10.09 0.0 0 0 511.2670 841.4693
  L 512.0270 841.4706
  A 10.09 10.09 0.0 0 0 522.1346 831.3982
  L 522.2053 790.8783
  Z"
/>
<path d="
  M 369.45 486.72
  L 365.08 486.38
  Q 364.49 486.33 364.22 486.86
  L 361.51 492.07
  L 364.03 484.52
  Q 364.19 484.03 364.71 484.11
  Q 367.11 484.48 369.45 486.72
  Z"
/>
</g>
<g fill="#0b281f">
<path d="
  M 536.67 177.91
  Q 509.19 175.14 481.73 178.14
  Q 481.32 177.97 480.78 178.03
  A 0.18 0.17 -80.0 0 1 480.61 177.78
  Q 480.68 177.64 480.76 177.49
  Q 480.81 177.39 480.92 177.37
  C 483.76 176.71 486.46 176.02 489.42 175.87
  Q 512.93 174.63 536.38 176.78
  Q 536.80 176.82 537.11 177.11
  L 537.47 177.45
  Q 537.60 177.57 537.43 177.63
  L 536.67 177.91
  Z"
/>
<path d="
  M 501.47 198.75
  C 501.51 191.71 509.45 188.33 515.21 190.12
  C 520.71 191.83 521.95 196.46 522.01 202.09
  Q 522.20 221.04 522.10 240.00
  Q 522.06 247.04 517.69 250.92
  Q 514.14 254.07 509.82 253.31
  C 503.71 252.24 501.20 246.56 501.23 240.75
  Q 501.33 219.75 501.47 198.75
  Z"
/>
<path d="
  M 363.54 212.58
  Q 342.40 223.63 330.99 231.30
  Q 278.51 266.59 241.67 316.42
  C 233.02 328.12 223.24 342.20 216.17 355.72
  Q 172.59 439.08 176.46 534.28
  Q 175.07 533.24 175.04 530.50
  Q 174.82 510.80 175.63 483.75
  C 175.69 481.80 176.44 480.26 176.60 478.74
  Q 177.20 472.86 178.05 467.02
  Q 178.06 466.95 178.89 460.18
  Q 179.62 454.29 181.49 448.64
  Q 181.69 448.03 181.88 446.28
  Q 181.99 445.31 182.36 443.87
  Q 186.32 428.54 188.95 419.81
  Q 188.98 419.70 191.36 410.58
  Q 192.60 405.83 194.74 401.38
  C 195.62 399.55 195.69 397.62 196.40 395.84
  Q 199.98 386.88 203.46 377.87
  Q 204.91 374.12 206.93 370.33
  C 211.74 361.28 215.52 351.88 220.67 342.97
  Q 221.57 341.40 224.00 338.33
  C 225.59 336.30 226.80 333.94 228.34 332.01
  C 232.10 327.31 235.59 321.48 238.68 317.36
  Q 251.32 300.54 265.26 284.80
  C 269.42 280.11 274.68 275.45 279.31 270.67
  Q 285.01 264.77 289.06 261.24
  Q 294.19 256.78 299.39 252.39
  Q 301.52 250.58 303.94 249.20
  Q 306.89 247.51 308.49 246.10
  Q 312.95 242.19 317.37 238.26
  Q 320.96 235.08 325.10 232.76
  Q 326.70 231.86 329.34 229.98
  Q 331.44 228.49 333.90 227.54
  Q 334.36 227.37 334.65 226.96
  C 336.08 224.97 338.21 224.61 339.72 223.70
  Q 348.60 218.41 357.76 213.65
  Q 358.33 213.36 358.94 213.34
  Q 359.47 213.33 359.86 212.97
  Q 361.62 211.36 363.98 211.10
  Q 364.55 211.03 364.24 211.51
  L 363.54 212.58
  Z"
/>
<path d="
  M 384.46 276.05
  C 391.35 285.74 378.26 296.69 369.50 290.72
  Q 367.57 289.40 363.88 283.94
  Q 354.90 270.67 345.95 257.37
  Q 342.20 251.79 341.53 249.02
  C 339.08 238.74 353.04 231.42 359.44 240.57
  Q 371.88 258.36 384.46 276.05
  Z"
/>
<rect x="-10.58" y="-31.68" transform="translate(660.18,264.60) rotate(35.3)" width="21.16" height="63.36" rx="10.31"/>
<path d="
  M 497.19 291.81
  Q 498.23 291.81 498.31 292.10
  A 0.67 0.59 66.1 0 1 498.09 292.79
  Q 478.45 307.10 461.09 323.13
  Q 449.54 333.79 446.39 336.67
  Q 435.94 346.19 424.13 357.88
  Q 417.65 364.30 413.31 369.71
  Q 405.41 379.53 397.23 389.12
  Q 395.97 390.59 392.44 395.45
  C 390.37 398.30 387.67 400.84 385.87 403.78
  Q 381.61 410.73 375.80 416.44
  C 408.33 367.49 450.52 327.12 497.19 291.81
  Z"
/>
<path d="
  M 501.78 316.15
  Q 498.95 317.37 497.02 318.97
  Q 477.42 335.20 458.44 352.62
  Q 461.58 347.52 466.74 343.80
  Q 468.49 342.53 470.49 340.39
  Q 472.08 338.70 474.35 336.97
  Q 479.00 333.44 492.50 321.05
  Q 496.14 317.71 500.57 314.93
  Q 505.37 311.91 510.42 308.54
  A 2.46 2.45 -42.2 0 1 513.33 308.68
  L 519.11 313.40
  A 0.38 0.37 -15.2 0 1 518.74 314.04
  C 517.04 313.40 515.69 312.18 513.94 312.05
  Q 508.04 311.61 503.66 315.62
  A 1.20 1.20 0.0 0 1 503.02 315.94
  L 501.78 316.15
  Z"
/>
<rect x="-30.15" y="-10.76" transform="translate(251.46,378.72) rotate(32.4)" width="60.30" height="21.52" rx="10.39"/>
<rect x="-30.51" y="-10.80" transform="translate(771.87,378.72) rotate(-32.0)" width="61.02" height="21.60" rx="10.34"/>
<path d="
  M 428.73 383.20
  L 411.13 404.21
  Q 410.12 403.81 410.69 402.96
  Q 412.47 400.31 417.56 393.75
  C 420.16 390.39 423.79 386.93 426.66 383.24
  Q 427.04 382.74 427.57 382.56
  Q 429.21 381.99 428.73 383.20
  Z"
/>
<path d="
  M 356.25 450.50
  L 373.79 462.39
  Q 381.29 467.81 402.95 482.05
  Q 451.21 513.77 499.55 544.89
  A 1.11 1.10 16.5 0 0 501.25 543.97
  L 501.71 487.02
  L 502.43 486.82
  Q 502.98 486.67 502.98 487.24
  L 502.91 542.21
  Q 502.91 542.71 503.41 542.61
  Q 512.65 540.81 522.15 543.66
  L 530.67 550.51
  Q 531.09 550.85 531.56 550.57
  L 655.72 476.78
  L 674.50 465.59
  Q 688.49 457.59 702.51 448.98
  Q 709.12 444.93 712.34 444.29
  C 725.09 441.79 730.21 459.35 718.94 466.16
  Q 706.60 473.63 699.71 477.56
  L 681.68 487.98
  Q 681.20 488.26 681.36 488.78
  L 687.17 507.61
  Q 693.79 534.75 692.20 562.94
  Q 691.66 563.48 691.96 564.62
  Q 691.97 564.63 691.92 564.63
  Q 691.90 564.64 691.87 564.65
  Q 691.82 564.67 691.84 564.61
  Q 692.21 563.57 691.58 562.81
  Q 691.26 562.43 691.26 561.94
  Q 691.18 553.83 691.02 545.72
  Q 690.93 541.72 690.07 536.36
  Q 689.32 531.69 688.94 526.99
  Q 688.62 523.07 687.64 518.70
  Q 686.72 514.57 686.28 510.40
  A 1.04 1.04 0.0 0 0 684.77 509.58
  L 667.15 518.71
  L 662.56 499.93
  Q 662.23 498.59 661.05 499.29
  L 537.80 572.13
  Q 537.36 572.39 537.15 572.85
  C 535.59 576.10 534.42 579.74 532.39 582.38
  Q 528.48 587.47 522.84 590.78
  A 0.93 0.91 75.3 0 0 522.40 591.55
  L 522.02 611.74
  Q 521.92 612.18 522.00 612.42
  L 521.63 613.81
  A 0.29 0.28 48.7 0 1 521.07 613.77
  L 520.89 612.43
  Q 520.81 611.85 520.21 611.87
  Q 514.84 612.09 509.63 610.76
  Q 509.21 610.66 508.93 610.33
  Q 508.45 609.77 507.74 609.85
  Q 507.23 609.92 506.77 609.69
  L 502.39 607.51
  A 1.24 1.24 0.0 0 0 501.69 607.38
  Q 500.87 607.46 500.84 606.92
  Q 501.28 599.25 500.88 591.96
  C 500.79 590.20 499.90 589.90 498.43 589.34
  Q 486.70 581.08 487.64 565.23
  C 487.74 563.37 486.17 563.13 485.04 562.41
  Q 429.92 527.00 375.57 490.41
  Q 372.36 488.25 369.45 486.72
  Q 367.11 484.48 364.71 484.11
  Q 364.19 484.03 364.03 484.52
  L 361.51 492.07
  L 358.55 502.92
  Q 353.44 521.91 353.06 541.45
  Q 351.62 542.56 351.90 540.58
  C 352.37 537.24 351.68 533.77 352.30 530.26
  Q 353.52 523.30 353.54 523.15
  Q 354.72 513.85 356.48 504.65
  A 2.27 2.27 0.0 0 0 355.45 502.30
  L 340.88 493.13
  A 0.48 0.47 26.2 0 0 340.18 493.36
  C 336.89 502.39 335.41 512.70 334.09 522.18
  C 332.72 532.05 332.93 544.01 331.97 555.13
  A 0.34 0.33 -49.2 0 1 331.31 555.18
  L 331.10 554.26
  Q 330.20 511.94 345.05 472.47
  Q 345.42 471.48 345.00 471.07
  Q 344.53 470.63 343.42 470.44
  L 325.67 459.00
  Q 315.96 452.68 306.30 446.73
  Q 303.63 445.09 301.58 440.69
  C 299.13 435.43 301.93 429.55 306.88 426.91
  Q 313.53 423.38 320.90 428.33
  Q 331.66 435.56 356.25 450.50
  Z"
/>
<path d="
  M 703.37 793.26
  C 748.53 760.81 786.24 718.35 811.53 669.18
  Q 815.99 660.51 819.86 651.00
  Q 833.24 618.10 839.90 584.74
  C 845.22 558.12 848.31 531.00 846.78 501.25
  Q 846.90 500.11 847.07 500.04
  A 0.95 0.94 77.6 0 1 848.38 500.88
  Q 848.79 513.46 849.00 525.95
  Q 849.01 526.08 849.24 529.04
  C 849.44 531.56 848.55 534.12 848.47 536.33
  Q 848.35 539.97 847.88 543.58
  Q 847.51 546.35 847.11 552.03
  Q 846.84 555.93 845.88 560.49
  Q 845.64 561.64 844.96 562.10
  Q 844.56 562.37 844.59 562.84
  C 844.93 568.06 843.47 573.76 842.93 577.58
  Q 842.43 581.05 841.79 584.50
  Q 841.73 584.83 841.40 584.89
  Q 841.09 584.95 841.08 585.25
  Q 840.93 589.77 840.15 592.98
  Q 840.07 593.28 839.78 593.39
  Q 839.65 593.43 839.53 593.49
  Q 839.43 593.54 839.41 593.65
  C 839.05 596.61 839.26 600.19 837.87 602.84
  Q 837.05 604.42 836.76 605.77
  Q 835.55 611.38 834.27 614.89
  Q 830.41 625.50 826.92 636.22
  Q 823.33 647.23 819.97 654.96
  Q 813.09 670.83 809.15 677.39
  Q 802.79 687.95 796.52 698.57
  Q 796.48 698.64 795.39 701.00
  C 794.70 702.48 793.40 703.31 792.64 704.73
  C 790.99 707.83 788.14 711.02 786.67 713.02
  Q 783.18 717.73 779.40 722.21
  A 1.06 1.01 67.9 0 0 779.16 722.82
  Q 779.13 723.24 778.89 723.51
  Q 771.01 732.41 763.46 741.59
  Q 758.43 747.71 747.84 757.48
  C 733.55 770.66 720.00 783.41 704.08 793.99
  Q 703.60 794.31 703.39 793.78
  Q 703.31 793.55 703.37 793.26
  Z"
/>
<rect x="-29.71" y="-10.42" transform="translate(217.69,516.04) rotate(-0.1)" width="59.42" height="20.84" rx="9.76"/>
<rect x="-30.21" y="-10.46" transform="translate(805.71,516.06) rotate(-0.4)" width="60.42" height="20.92" rx="9.67"/>
<path d="
  M 690.07 580.26
  Q 689.10 587.02 686.53 596.24
  Q 668.69 660.47 612.86 698.38
  Q 602.41 705.49 595.55 708.78
  L 594.52 708.63
  Q 593.79 708.51 594.21 707.91
  C 595.89 705.46 597.88 705.29 600.17 704.21
  Q 603.56 702.60 606.95 701.02
  Q 607.42 700.81 607.69 700.38
  C 608.19 699.59 608.60 698.99 609.45 698.52
  Q 613.39 696.34 616.82 693.44
  C 617.81 692.61 618.94 692.86 619.76 692.10
  Q 623.40 688.69 627.15 685.39
  C 629.34 683.47 632.24 679.94 635.19 677.60
  Q 637.35 675.89 638.52 674.60
  Q 642.70 669.95 646.73 665.18
  Q 647.89 663.79 649.63 662.52
  Q 651.79 660.95 652.59 659.85
  Q 659.94 649.76 668.31 635.84
  Q 675.24 624.32 679.26 612.84
  Q 679.53 612.07 680.78 609.53
  C 681.49 608.07 681.85 606.12 682.27 604.86
  Q 684.40 598.57 686.15 592.19
  Q 687.86 585.96 688.73 579.32
  A 0.55 0.55 0.0 0 1 689.81 579.26
  L 690.07 580.26
  Z"
/>
<path d="
  M 764.78 636.59
  Q 777.37 644.27 789.84 652.12
  Q 795.36 655.59 796.97 657.69
  C 803.87 666.61 793.23 678.87 783.11 673.65
  Q 777.17 670.58 762.68 660.69
  C 758.43 657.79 751.93 654.83 747.88 651.11
  C 740.33 644.19 745.74 630.32 756.45 632.57
  Q 759.13 633.14 764.78 636.59
  Z"
/>
<path d="
  M 277.90 647.34
  C 275.75 652.31 272.73 653.73 267.09 657.13
  Q 255.89 663.88 244.76 670.80
  Q 239.12 674.31 235.80 674.75
  Q 229.31 675.60 226.15 669.85
  C 222.56 663.31 224.43 657.54 230.71 653.70
  Q 246.00 644.36 261.41 635.20
  Q 265.79 632.61 268.56 632.57
  C 276.54 632.45 280.95 640.23 277.90 647.34
  Z"
/>
<rect x="-10.63" y="-31.52" transform="translate(363.24,767.99) rotate(35.7)" width="21.26" height="63.04" rx="10.33"/>
<rect x="-10.72" y="-31.39" transform="translate(660.06,767.94) rotate(-34.9)" width="21.44" height="62.78" rx="10.11"/>
<rect x="-10.47" y="-30.35" transform="translate(511.70,811.12) rotate(0.1)" width="20.94" height="60.70" rx="10.09"/>
</g>
<g fill="#89e49f">
<path d="
  M 501.78 316.15
  L 500.97 433.39
  A 0.77 0.77 0.0 0 1 499.84 434.06
  Q 496.47 432.27 494.12 430.39
  Q 471.17 412.07 452.74 396.49
  C 447.30 391.89 439.01 389.92 434.32 396.50
  C 429.74 402.93 433.13 408.58 438.48 413.01
  Q 468.94 438.27 500.08 462.67
  Q 501.34 463.66 501.40 465.50
  Q 501.75 476.22 501.71 487.02
  L 501.25 543.97
  A 1.11 1.10 16.5 0 1 499.55 544.89
  Q 451.21 513.77 402.95 482.05
  Q 381.29 467.81 373.79 462.39
  Q 375.85 457.89 376.84 456.09
  Q 391.91 428.79 411.13 404.21
  L 428.73 383.20
  L 458.44 352.62
  Q 477.42 335.20 497.02 318.97
  Q 498.95 317.37 501.78 316.15
  Z"
/>
<path d="
  M 358.55 502.92
  Q 358.58 503.12 358.62 503.27
  Q 358.75 503.69 359.09 503.40
  Q 359.21 503.30 359.32 503.18
  Q 359.56 502.92 359.77 503.22
  L 360.61 504.44
  Q 360.86 504.81 361.24 505.04
  Q 370.30 510.61 379.52 515.93
  Q 389.74 521.82 422.80 544.42
  C 426.32 546.83 431.12 549.37 435.03 551.89
  Q 450.39 561.81 468.87 572.88
  Q 471.90 574.70 474.28 577.41
  C 477.88 581.51 479.18 587.55 483.27 591.78
  C 486.28 594.89 494.11 602.66 498.56 602.41
  A 1.71 1.71 0.0 0 0 500.15 600.98
  Q 501.12 594.94 498.43 589.34
  C 499.90 589.90 500.79 590.20 500.88 591.96
  Q 501.28 599.25 500.84 606.92
  Q 460.18 578.18 397.02 535.00
  Q 390.07 530.25 384.08 533.86
  Q 380.30 536.13 379.09 540.13
  C 376.75 547.86 385.01 554.11 390.66 557.84
  C 414.81 573.78 439.28 589.72 462.48 607.00
  C 475.01 616.33 487.82 625.14 499.95 635.00
  C 501.63 636.37 501.58 637.61 501.60 639.62
  Q 501.94 673.31 500.96 707.17
  Q 500.95 707.47 500.66 707.45
  C 415.18 700.40 347.80 628.73 353.06 541.45
  Q 353.44 521.91 358.55 502.92
  Z"
/>
</g>
<g fill="#70bb82">
<path d="
  M 369.45 486.72
  Q 372.36 488.25 375.57 490.41
  Q 429.92 527.00 485.04 562.41
  C 486.17 563.13 487.74 563.37 487.64 565.23
  Q 486.70 581.08 498.43 589.34
  Q 501.12 594.94 500.15 600.98
  A 1.71 1.71 0.0 0 1 498.56 602.41
  C 494.11 602.66 486.28 594.89 483.27 591.78
  C 479.18 587.55 477.88 581.51 474.28 577.41
  Q 471.90 574.70 468.87 572.88
  Q 450.39 561.81 435.03 551.89
  C 431.12 549.37 426.32 546.83 422.80 544.42
  Q 389.74 521.82 379.52 515.93
  Q 370.30 510.61 361.24 505.04
  Q 360.86 504.81 360.61 504.44
  L 359.77 503.22
  Q 359.56 502.92 359.32 503.18
  Q 359.21 503.30 359.09 503.40
  Q 358.75 503.69 358.62 503.27
  Q 358.58 503.12 358.55 502.92
  L 361.51 492.07
  L 364.22 486.86
  Q 364.49 486.33 365.08 486.38
  L 369.45 486.72
  Z"
/>
<path d="
  M 523.85 679.65
  Q 523.83 681.63 522.26 683.09
  Q 521.99 680.42 523.85 679.65
  Z"
/>
</g>
<path fill="#00b361" d="
  M 667.15 518.71
  L 668.18 524.08
  L 665.35 519.96
  Q 665.05 519.52 664.60 519.80
  C 641.14 534.20 616.55 546.69 593.52 561.79
  C 590.88 563.52 587.56 564.97 585.25 566.46
  Q 575.03 573.02 564.61 579.25
  C 552.73 586.34 541.33 594.73 529.43 602.18
  Q 529.21 602.32 526.18 603.81
  Q 524.61 604.58 523.24 605.67
  A 1.06 1.06 0.0 0 0 522.84 606.56
  Q 522.99 609.36 522.02 611.74
  L 522.40 591.55
  A 0.93 0.91 75.3 0 1 522.84 590.78
  Q 528.48 587.47 532.39 582.38
  C 534.42 579.74 535.59 576.10 537.15 572.85
  Q 537.36 572.39 537.80 572.13
  L 661.05 499.29
  Q 662.23 498.59 662.56 499.93
  L 667.15 518.71
  Z"
/>
<g fill="#f2e1d5">
<path d="
  M 325.67 459.00
  L 343.42 470.44
  Q 343.24 471.39 343.73 472.51
  Q 343.93 472.97 343.66 473.39
  Q 342.58 475.09 342.17 476.39
  Q 340.01 483.21 337.91 489.67
  A 0.89 0.88 -63.8 0 1 336.57 490.13
  C 332.33 487.31 328.30 484.24 323.88 481.65
  Q 315.65 476.84 307.84 471.39
  C 304.80 469.27 304.36 467.52 304.54 464.01
  C 305.12 452.96 314.61 452.27 321.69 458.42
  C 322.89 459.46 324.36 459.82 325.67 459.00
  Z"
/>
<path d="
  M 699.71 477.56
  Q 699.48 478.19 699.81 478.57
  Q 700.17 478.96 700.62 478.69
  Q 703.05 477.26 705.02 477.71
  Q 713.77 479.68 713.73 487.96
  C 713.72 491.12 711.68 494.15 709.06 495.57
  Q 698.24 501.46 687.17 507.61
  L 681.36 488.78
  Q 681.20 488.26 681.68 487.98
  L 699.71 477.56
  Z"
/>
</g>
</svg>
