<?xml version="1.0" encoding="UTF-8" standalone="no"?>
<!DOCTYPE svg PUBLIC "-//W3C//DTD SVG 1.1//EN" "http://www.w3.org/Graphics/SVG/1.1/DTD/svg11.dtd">
<!-- Created with Vectornator (http://vectornator.io/) -->
<svg height="100%" stroke-miterlimit="10" style="fill-rule:nonzero;clip-rule:evenodd;stroke-linecap:round;stroke-linejoin:round;" version="1.1" viewBox="0 0 719.72 725.424" width="100%" xml:space="preserve" xmlns="http://www.w3.org/2000/svg" xmlns:xlink="http://www.w3.org/1999/xlink">
<defs/>
<g id="Untitled">
<g opacity="1">
<path d="M35.5908 212.163C19.4442 247.376 9.20084 284.836 4.86084 324.543C4.20751 330.51 3.84751 337.16 3.78084 344.493C3.62084 361.633 3.04084 379.383 4.75084 396.193C11.4308 461.623 34.0608 525.423 74.3808 578.043C97.1942 607.823 123.498 633.603 153.291 655.383C175.071 671.313 198.901 683.633 224.881 694.993C258.501 709.693 294.601 718.153 331.021 721.913C336.491 722.473 343.761 722.553 350.671 723.163C355.538 723.596 361.048 723.613 367.201 723.213C374.114 722.76 378.778 722.476 381.191 722.363C386.524 722.11 391.181 721.72 395.161 721.193C404.388 719.966 414.991 718.236 426.971 716.003C434.098 714.67 440.598 713.203 446.471 711.603C511.191 693.956 567.211 661.386 614.531 613.893C619.751 608.663 624.991 602.433 630.711 596.023C646.938 577.863 661.554 556.756 674.561 532.703C679.588 523.416 684.331 513.126 688.791 501.833C708.404 452.213 717.478 400.916 716.011 347.943C715.901 344.303 715.211 340.113 715.031 336.153C714.811 331.546 714.638 328.606 714.511 327.333C711.621 298.423 705.681 273.073 698.081 248.993C692.148 230.22 684.044 211.403 673.771 192.543C662.851 172.496 651.804 155.32 640.631 141.013C630.658 128.233 618.224 114.686 603.331 100.373C602.191 99.2731 600.498 97.7764 598.251 95.8831C593.921 92.2331 589.521 87.6131 585.691 84.5531C572.424 73.9864 558.604 64.2031 544.231 55.2031C497.224 25.7564 446.188 8.37976 391.121 3.0731C385.434 2.52643 378.781 2.22643 371.161 2.1731C356.181 2.0731 340.781 1.3031 326.101 3.0931C283.291 8.2831 241.061 19.3531 202.581 39.7131C196.261 43.0631 189.021 46.6131 183.611 49.7131C159.818 63.3331 139.008 78.6798 121.181 95.7531C110.108 106.36 99.5208 117.433 89.4208 128.973C67.4475 154.08 49.5042 181.81 35.5908 212.163" fill="none" opacity="1" stroke="#98a69c" stroke-linecap="butt" stroke-linejoin="miter" stroke-width="2"/>
<path d="M329.651 24.3731C288.521 28.8831 248.251 39.7031 211.461 58.8131" fill="none" opacity="1" stroke="#98a193" stroke-linecap="butt" stroke-linejoin="miter" stroke-width="2"/>
<path d="M211.461 58.8131L212.161 57.7431C212.368 57.4231 212.281 57.2864 211.901 57.3331C210.328 57.5064 208.954 58.1298 207.781 59.2031C207.521 59.4431 207.214 59.5664 206.861 59.5731C206.454 59.5864 206.061 59.6898 205.681 59.8831C199.574 63.0564 193.561 66.4064 187.641 69.9331C186.131 70.8431 184.001 71.2031 182.571 73.1931C182.378 73.4664 182.128 73.6598 181.821 73.7731C180.181 74.4064 178.661 75.2198 177.261 76.2131C175.501 77.4664 174.088 78.3931 173.021 78.9931C170.261 80.5398 167.684 82.3731 165.291 84.4931C162.344 87.1131 159.384 89.7264 156.411 92.3331C155.344 93.2731 153.828 94.3064 151.861 95.4331C150.248 96.3531 148.731 97.4164 147.311 98.6231C143.844 101.55 140.401 104.5 136.981 107.473C134.281 109.826 131.031 112.97 127.231 116.903C122.601 121.683 117.341 126.343 113.181 131.033C103.888 141.526 95.0275 152.38 86.6008 163.593C83.5108 167.713 80.0208 173.543 76.2608 178.243C74.7208 180.173 73.5108 182.533 71.9208 184.563C70.3008 186.61 69.1908 188.156 68.5908 189.203C63.4408 198.113 59.6608 207.513 54.8508 216.563C53.5042 219.09 52.3475 221.603 51.3808 224.103C49.0608 230.11 46.7075 236.1 44.3208 242.073C43.6108 243.853 43.5408 245.783 42.6608 247.613C41.2342 250.58 40.1075 253.646 39.2808 256.813C37.6942 262.893 36.8908 265.97 36.8708 266.043C35.1175 271.863 32.9208 279.883 30.2808 290.103C30.0342 291.063 29.8742 291.866 29.8008 292.513C29.6742 293.68 29.5442 294.466 29.4108 294.873C28.1642 298.64 27.2975 302.486 26.8108 306.413C26.2575 310.926 25.9775 313.206 25.9708 313.253C25.4042 317.146 24.9208 321.053 24.5208 324.973C24.3608 326.493 23.6108 328.033 23.5508 329.983C23.0108 348.016 22.8142 363.6 22.9608 376.733C22.9808 378.56 23.4542 379.82 24.3808 380.513" fill="none" opacity="1" stroke="#1e3a2c" stroke-linecap="butt" stroke-linejoin="miter" stroke-width="2"/>
<path d="M24.3808 380.513C27.2475 416.44 34.8742 451.333 47.2608 485.193C62.2808 526.263 87.2208 564.063 117.291 595.353C167.198 647.286 227.654 680.616 298.661 695.343C330.168 701.87 361.334 703.406 392.161 699.953C450.181 693.453 503.224 673.3 551.291 639.493" fill="none" opacity="1" stroke="#98a193" stroke-linecap="butt" stroke-linejoin="miter" stroke-width="2"/>
<path d="M551.291 639.493C551.251 639.686 551.258 639.86 551.311 640.013C551.451 640.366 551.681 640.436 552.001 640.223C567.921 629.643 581.471 616.893 595.761 603.713C602.821 597.2 608.028 591.903 611.381 587.823C616.414 581.703 621.558 575.676 626.811 569.743C626.971 569.563 627.061 569.333 627.081 569.053C627.094 568.826 627.178 568.612 627.321 568.443C629.841 565.456 632.264 562.393 634.591 559.253C636.061 557.253 638.911 554.063 640.561 550.963C641.321 549.543 642.621 548.713 643.311 547.233C644.038 545.66 644.414 544.85 644.441 544.803C648.621 537.723 652.831 530.663 657.071 523.623C659.698 519.25 663.304 511.773 667.891 501.193C670.131 496.04 672.448 489.793 674.841 482.453C677.168 475.306 679.618 468.196 682.191 461.123C683.044 458.783 683.874 455.743 684.681 452.003C684.874 451.103 685.244 450.126 685.791 449.073C687.181 446.423 686.971 442.843 687.331 439.883C687.344 439.81 687.384 439.756 687.451 439.723C687.531 439.683 687.614 439.65 687.701 439.623C687.894 439.55 688.018 439.413 688.071 439.213C688.591 437.073 688.901 434.496 689.001 431.483C689.008 431.283 689.114 431.163 689.321 431.123C689.541 431.083 689.671 430.953 689.711 430.733C690.138 428.433 690.518 426.126 690.851 423.813C691.391 419.993 692.851 414.293 692.511 409.073C692.491 408.76 692.614 408.513 692.881 408.333C693.334 408.026 693.641 407.49 693.801 406.723C694.441 403.683 694.851 400.863 695.031 398.263C695.298 394.476 695.554 391.66 695.801 389.813C696.114 387.406 696.311 384.99 696.391 382.563C696.471 380.353 697.361 377.793 697.161 375.273L696.921 372.183C696.781 363.856 696.574 355.5 696.301 347.113C696.288 346.801 696.124 346.514 695.863 346.347C695.601 346.179 695.275 346.151 694.991 346.273C694.878 346.32 694.781 346.723 694.701 347.483" fill="none" opacity="1" stroke="#1e3a2c" stroke-linecap="butt" stroke-linejoin="miter" stroke-width="2"/>
<path d="M694.701 347.483C694.041 326.23 690.904 304.19 685.291 281.363C679.991 259.83 673.264 240.213 665.111 222.513C643.751 176.133 611.081 133.013 570.851 100.493C560.451 92.0798 551.658 85.4698 544.471 80.6631C496.124 48.3098 442.831 29.4698 384.591 24.1431" fill="none" opacity="1" stroke="#98a193" stroke-linecap="butt" stroke-linejoin="miter" stroke-width="2"/>
<path d="M384.591 24.1431L385.351 23.8631C385.464 23.8231 385.478 23.7631 385.391 23.6831L385.031 23.3431C384.824 23.1498 384.581 23.0398 384.301 23.0131C368.668 21.5798 353.014 21.2764 337.341 22.1031C334.381 22.2531 331.681 22.9431 328.841 23.6031C328.768 23.6164 328.714 23.6564 328.681 23.7231C328.628 23.8231 328.578 23.9198 328.531 24.0131C328.506 24.0718 328.512 24.1396 328.547 24.1911C328.582 24.2426 328.64 24.27 328.701 24.2631C329.061 24.2231 329.378 24.2598 329.651 24.3731" fill="none" opacity="1" stroke="#1e3a2c" stroke-linecap="butt" stroke-linejoin="miter" stroke-width="2"/>
<path d="M384.591 24.1431C366.271 22.2964 347.958 22.3731 329.651 24.3731M694.701 347.483C696.231 377.233 693.141 404.353 687.821 430.973C683.381 453.213 676.701 475.3 667.781 497.233C665.201 503.573 662.424 509.633 659.451 515.413C634.161 564.583 596.451 607.043 551.291 639.493M24.3808 380.513C21.8008 317.046 35.0375 257.526 64.0908 201.953C71.1608 188.433 80.9408 174.353 89.5908 162.653C114.151 129.433 143.924 101.06 178.911 77.5331C186.518 72.4198 197.368 66.1798 211.461 58.8131M363.131 36.3531C357.371 34.5631 349.431 37.9431 349.391 44.9831C349.298 58.9831 349.218 72.9831 349.151 86.9831C349.121 92.7931 351.631 98.4731 357.741 99.5431C360.621 100.05 363.244 99.2531 365.611 97.1531C368.524 94.5664 369.994 90.9264 370.021 86.2331C370.088 73.5931 370.058 60.9564 369.931 48.3231C369.871 42.6931 368.631 38.0631 363.131 36.3531" fill="none" opacity="1" stroke="#858f86" stroke-linecap="butt" stroke-linejoin="miter" stroke-width="2"/>
<path d="M217.421 136.953C226.181 142.923 239.271 131.973 232.381 122.283C223.994 110.49 215.654 98.6631 207.361 86.8031C200.961 77.6531 187.001 84.9731 189.451 95.2531C189.898 97.0998 191.371 99.8831 193.871 103.603C199.838 112.47 205.814 121.326 211.801 130.173C214.261 133.813 216.134 136.073 217.421 136.953M529.085 99.5061C532.375 94.8589 531.275 88.4243 526.628 85.1341L526.188 84.8221C521.541 81.531 515.105 82.6306 511.815 87.2781L487.117 122.16C483.827 126.807 484.927 133.242 489.574 136.532L490.014 136.844C494.661 140.135 501.096 139.036 504.387 134.388L529.085 99.5061M345.111 138.043C298.441 173.353 256.251 213.723 223.721 262.673" fill="none" opacity="1" stroke="#858f86" stroke-linecap="butt" stroke-linejoin="miter" stroke-width="2"/>
<path d="M223.721 262.673C216.341 273.34 209.824 284.693 204.171 296.733" fill="none" opacity="1" stroke="#98a193" stroke-linecap="butt" stroke-linejoin="miter" stroke-width="2"/>
<path d="M204.171 296.733C187.778 286.773 175.994 279.383 168.821 274.563C163.908 271.263 159.234 270.79 154.801 273.143C149.851 275.783 147.051 281.663 149.501 286.923C150.868 289.856 152.441 291.87 154.221 292.963C160.661 296.93 167.118 301.02 173.591 305.233" fill="none" opacity="1" stroke="#858f86" stroke-linecap="butt" stroke-linejoin="miter" stroke-width="2"/>
<path d="M173.591 305.233C172.281 306.053 170.811 305.693 169.611 304.653C162.531 298.503 153.041 299.193 152.461 310.243C152.281 313.753 152.721 315.503 155.761 317.623C160.968 321.256 166.314 324.676 171.801 327.883C176.221 330.473 180.251 333.543 184.491 336.363C184.719 336.521 185.008 336.56 185.272 336.47C185.536 336.379 185.743 336.169 185.831 335.903C187.231 331.596 188.651 327.17 190.091 322.623C190.364 321.756 190.861 320.756 191.581 319.623C191.761 319.343 191.784 319.05 191.651 318.743C191.324 317.996 191.221 317.306 191.341 316.673" fill="none" opacity="1" stroke="#f9ece1" stroke-linecap="butt" stroke-linejoin="miter" stroke-width="2"/>
<path d="M191.341 316.673C192.081 316.8 192.608 317.01 192.921 317.303C193.201 317.576 193.218 318.043 192.971 318.703C183.071 345.016 178.421 372.28 179.021 400.493" fill="none" opacity="1" stroke="#858f86" stroke-linecap="butt" stroke-linejoin="miter" stroke-width="2"/>
<path d="M179.021 400.493C179.061 432.633 188.651 462.753 205.271 490.133C213.038 502.933 223.144 515.08 235.591 526.573C267.391 555.926 304.944 572.363 348.251 575.883C348.688 575.915 349.023 576.289 349.011 576.733C348.891 581.386 348.851 586.09 348.891 590.843C348.924 594.183 349.304 596.726 350.031 598.473C352.601 604.663 359.921 608.103 365.661 603.443C368.694 600.976 370.264 598.24 370.371 595.233C370.598 588.986 370.664 582.766 370.571 576.573C370.564 576.054 370.958 575.62 371.471 575.583C396.731 573.783 420.731 566.926 443.471 555.013" fill="none" opacity="1" stroke="#98a193" stroke-linecap="butt" stroke-linejoin="miter" stroke-width="2"/>
<path d="M443.471 555.013C448.044 552.82 453.814 549.353 460.781 544.613C498.001 519.34 522.558 485.293 534.451 442.473C536.164 436.326 537.344 431 537.991 426.493" fill="none" opacity="1" stroke="#858f86" stroke-linecap="butt" stroke-linejoin="miter" stroke-width="2"/>
<path d="M537.991 426.493L540.121 409.173" fill="none" opacity="1" stroke="#98a193" stroke-linecap="butt" stroke-linejoin="miter" stroke-width="2"/>
<path d="M540.121 409.173C541.181 390.38 539.504 371.936 535.091 353.843" fill="none" opacity="1" stroke="#858f86" stroke-linecap="butt" stroke-linejoin="miter" stroke-width="2"/>
<path d="M535.091 353.843C542.471 349.743 549.768 345.73 556.981 341.803C559.601 340.383 561.641 337.353 561.651 334.193C561.678 328.673 558.774 325.256 552.941 323.943C551.628 323.643 550.161 323.97 548.541 324.923C548.241 325.103 547.971 325.063 547.731 324.803C547.511 324.55 547.478 324.213 547.631 323.793" fill="none" opacity="1" stroke="#f9ece1" stroke-linecap="butt" stroke-linejoin="miter" stroke-width="2"/>
<path d="M547.631 323.793C552.224 321.173 558.634 317.373 566.861 312.393C578.131 305.583 573.011 288.023 560.261 290.523C558.114 290.95 554.838 292.513 550.431 295.213C541.084 300.953 531.748 306.49 522.421 311.823" fill="none" opacity="1" stroke="#858f86" stroke-linecap="butt" stroke-linejoin="miter" stroke-width="2"/>
<path d="M522.421 311.823C511.394 286.73 497.531 263.383 480.831 241.783C465.531 221.996 447.614 202.426 427.081 183.073C407.601 164.726 388.344 148.683 369.311 134.943C365.858 132.456 363.964 131.126 363.631 130.953C356.291 127.213 350.401 134.103 345.111 138.043" fill="none" opacity="1" stroke="#98a193" stroke-linecap="butt" stroke-linejoin="miter" stroke-width="2"/>
<path d="M522.421 311.823L503.641 323.013" fill="none" opacity="1" stroke="#1e3a2c" stroke-linecap="butt" stroke-linejoin="miter" stroke-width="2"/>
<path d="M503.641 323.013C497.521 308.106 490.261 294.163 481.861 281.183C470.791 264.103 457.811 246.443 444.871 231.993C430.851 216.34 419.831 204.956 411.811 197.843C398.824 186.33 385.418 174.713 371.591 162.993C370.458 162.033 369.894 162.293 369.901 163.773C370.161 217.04 370.211 270.703 370.051 324.763C370.041 327.923 370.361 331.393 370.451 334.663C370.457 334.847 370.568 335.011 370.736 335.086C370.904 335.16 371.1 335.132 371.241 335.013C391.728 317.613 413.118 301.376 435.411 286.303C438.471 284.233 441.341 282.043 444.271 279.863C448.404 276.796 450.621 275.183 450.921 275.023C464.231 268.233 474.011 286.843 461.251 294.793C450.661 301.393 440.251 309.213 430.771 316.083C410.651 330.656 391.044 345.89 371.951 361.783C370.798 362.75 370.208 364.066 370.181 365.733C370.041 376.546 370.004 384.6 370.071 389.893" fill="none" opacity="1" stroke="#198d54" stroke-linecap="butt" stroke-linejoin="miter" stroke-width="2"/>
<path d="M370.071 389.893C363.738 387.993 357.491 387.643 351.331 388.843C350.998 388.91 350.831 388.776 350.831 388.443L350.901 333.473C350.901 333.093 350.718 332.953 350.351 333.053L349.631 333.253" fill="none" opacity="1" stroke="#1e3a2c" stroke-linecap="butt" stroke-linejoin="miter" stroke-width="2"/>
<path d="M349.631 333.253C349.658 326.053 349.554 318.88 349.321 311.733C349.281 310.506 348.841 309.563 348.001 308.903C327.241 292.636 306.708 276.083 286.401 259.243C281.051 254.813 277.661 249.163 282.241 242.733C286.931 236.153 295.221 238.123 300.661 242.723C312.948 253.11 326.741 264.41 342.041 276.623C343.608 277.876 345.514 279.1 347.761 280.293C347.998 280.418 348.283 280.412 348.514 280.275C348.744 280.138 348.887 279.891 348.891 279.623L349.701 162.383" fill="none" opacity="1" stroke="#5d986c" stroke-linecap="butt" stroke-linejoin="miter" stroke-width="2"/>
<path d="M349.701 162.383L350.941 162.173C351.182 162.134 351.405 162.022 351.581 161.853C354.501 159.18 357.928 157.99 361.861 158.283C363.611 158.413 364.961 159.633 366.661 160.273C366.835 160.333 367.029 160.26 367.12 160.102C367.212 159.944 367.174 159.746 367.031 159.633L361.251 154.913C360.419 154.234 359.239 154.177 358.341 154.773C354.974 157.02 351.691 159.15 348.491 161.163C345.538 163.016 342.848 165.056 340.421 167.283C331.421 175.543 325.371 180.85 322.271 183.203C320.758 184.356 319.471 185.496 318.411 186.623C317.078 188.05 315.828 189.186 314.661 190.033C311.221 192.513 308.454 195.453 306.361 198.853" fill="none" opacity="1" stroke="#1e3a2c" stroke-linecap="butt" stroke-linejoin="miter" stroke-width="2"/>
<path d="M306.361 198.853L276.651 229.433" fill="none" opacity="1" stroke="#5d986c" stroke-linecap="butt" stroke-linejoin="miter" stroke-width="2"/>
<path d="M276.651 229.433C276.971 228.626 276.584 228.413 275.491 228.793C275.138 228.913 274.834 229.14 274.581 229.473C271.711 233.163 268.081 236.623 265.481 239.983C262.088 244.356 259.798 247.426 258.611 249.193C258.231 249.76 258.378 250.176 259.051 250.443" fill="none" opacity="1" stroke="#1e3a2c" stroke-linecap="butt" stroke-linejoin="miter" stroke-width="2"/>
<path d="M259.051 250.443C246.238 266.83 234.808 284.123 224.761 302.323C224.101 303.523 223.084 305.623 221.711 308.623" fill="none" opacity="1" stroke="#5d986c" stroke-linecap="butt" stroke-linejoin="miter" stroke-width="2"/>
<path d="M221.711 308.623L204.171 296.733M223.721 262.673C227.594 258.866 230.951 254.646 233.791 250.013C235.591 247.073 238.291 244.533 240.361 241.683C242.714 238.443 244.311 236.333 245.151 235.353C250.604 228.96 255.964 222.49 261.231 215.943C264.124 212.336 267.731 208.393 272.051 204.113C279.924 196.32 287.344 189.25 294.311 182.903C296.411 180.983 301.311 176.47 309.011 169.363C320.584 158.676 332.918 148.563 346.011 139.023C346.215 138.88 346.303 138.605 346.231 138.333C346.178 138.14 345.804 138.043 345.111 138.043" fill="none" opacity="1" stroke="#1e3a2c" stroke-linecap="butt" stroke-linejoin="miter" stroke-width="2"/>
<path d="M547.631 323.793L529.601 334.213C529.281 334.4 529.174 334.666 529.281 335.013L535.091 353.843" fill="none" opacity="1" stroke="#7f857a" stroke-linecap="butt" stroke-linejoin="miter" stroke-width="2"/>
<path d="M540.121 409.173C539.761 409.533 539.681 410.093 539.881 410.853C539.888 410.86 539.874 410.863 539.841 410.863C539.828 410.87 539.811 410.876 539.791 410.883C539.758 410.896 539.748 410.883 539.761 410.843C540.008 410.15 539.921 409.55 539.501 409.043C539.288 408.79 539.181 408.5 539.181 408.173C539.128 402.766 539.048 397.36 538.941 391.953C538.881 389.286 538.564 386.166 537.991 382.593C537.491 379.48 537.114 376.356 536.861 373.223C536.648 370.61 536.214 367.846 535.561 364.933C534.948 362.18 534.494 359.413 534.201 356.633C534.166 356.291 533.965 355.988 533.662 355.824C533.36 355.66 532.997 355.656 532.691 355.813L515.071 364.943" fill="none" opacity="1" stroke="#1e3a2c" stroke-linecap="butt" stroke-linejoin="miter" stroke-width="2"/>
<path d="M515.071 364.943L510.481 346.163C510.261 345.27 509.758 345.056 508.971 345.523L385.721 418.363C385.428 418.536 385.211 418.776 385.071 419.083C383.511 422.333 382.341 425.973 380.311 428.613C377.704 432.006 374.521 434.806 370.761 437.013C370.494 437.175 370.328 437.465 370.321 437.783L369.941 457.973" fill="none" opacity="1" stroke="#066e40" stroke-linecap="butt" stroke-linejoin="miter" stroke-width="2"/>
<path d="M369.941 457.973C369.874 458.266 369.868 458.493 369.921 458.653" fill="none" opacity="1" stroke="#067b47" stroke-linecap="butt" stroke-linejoin="miter" stroke-width="2"/>
<path d="M369.921 458.653L369.551 460.043C369.522 460.178 369.4 460.269 369.262 460.259C369.124 460.249 369.01 460.141 368.991 460.003L368.811 458.663C368.758 458.276 368.531 458.09 368.131 458.103C364.551 458.25 361.024 457.88 357.551 456.993C357.271 456.926 357.038 456.783 356.851 456.563C356.531 456.19 356.134 456.03 355.661 456.083C355.321 456.13 354.998 456.076 354.691 455.923L350.311 453.743C350.095 453.632 349.852 453.587 349.611 453.613C349.064 453.666 348.781 453.513 348.761 453.153" fill="none" opacity="1" stroke="#1e3a2c" stroke-linecap="butt" stroke-linejoin="miter" stroke-width="2"/>
<path d="M348.761 453.153C349.054 448.04 349.068 443.053 348.801 438.193C348.711 436.433 347.821 436.133 346.351 435.573" fill="none" opacity="1" stroke="#4a865f" stroke-linecap="butt" stroke-linejoin="miter" stroke-width="2"/>
<path d="M346.351 435.573C338.531 430.066 334.934 422.03 335.561 411.463C335.661 409.603 334.091 409.363 332.961 408.643C296.214 385.036 259.724 361.036 223.491 336.643C221.351 335.203 219.311 333.973 217.371 332.953" fill="none" opacity="1" stroke="#3e7251" stroke-linecap="butt" stroke-linejoin="miter" stroke-width="2"/>
<path d="M217.371 332.953C215.811 331.46 214.231 330.59 212.631 330.343C212.284 330.29 212.058 330.426 211.951 330.753L209.431 338.303" fill="none" opacity="1" stroke="#858f86" stroke-linecap="butt" stroke-linejoin="miter" stroke-width="2"/>
<path d="M209.431 338.303L206.471 349.153" fill="none" opacity="1" stroke="#3e7251" stroke-linecap="butt" stroke-linejoin="miter" stroke-width="2"/>
<path d="M206.471 349.153C203.064 361.813 201.234 374.656 200.981 387.683" fill="none" opacity="1" stroke="#4a865f" stroke-linecap="butt" stroke-linejoin="miter" stroke-width="2"/>
<path d="M200.981 387.683C200.021 388.423 199.634 388.133 199.821 386.813C200.291 383.473 199.601 380.003 200.221 376.493C201.034 371.853 201.448 369.483 201.461 369.383C202.248 363.183 203.228 357.016 204.401 350.883C204.576 349.962 204.166 349.029 203.371 348.533L188.801 339.363C188.678 339.287 188.528 339.268 188.393 339.313C188.257 339.357 188.15 339.46 188.101 339.593C184.811 348.623 183.331 358.933 182.011 368.413C180.641 378.283 180.851 390.243 179.891 401.363C179.873 401.528 179.738 401.659 179.574 401.672C179.409 401.684 179.264 401.574 179.231 401.413L179.021 400.493" fill="none" opacity="1" stroke="#1e3a2c" stroke-linecap="butt" stroke-linejoin="miter" stroke-width="2"/>
<path d="M191.341 316.673L173.591 305.233" fill="none" opacity="1" stroke="#7f857a" stroke-linecap="butt" stroke-linejoin="miter" stroke-width="2"/>
<path d="M349.631 333.253L349.171 390.203C349.17 390.603 348.95 390.97 348.596 391.161C348.243 391.353 347.812 391.338 347.471 391.123C315.244 370.376 283.044 349.43 250.871 328.283C236.431 318.79 226.711 312.236 221.711 308.623M259.051 250.443L276.651 229.433" fill="none" opacity="1" stroke="#4a865f" stroke-linecap="butt" stroke-linejoin="miter" stroke-width="2"/>
<path d="M503.641 323.013L379.481 396.803C379.168 396.99 378.871 396.97 378.591 396.743L370.071 389.893" fill="none" opacity="1" stroke="#067b47" stroke-linecap="butt" stroke-linejoin="miter" stroke-width="2"/>
<path d="M349.701 162.383C347.814 163.196 346.228 164.136 344.941 165.203C331.874 176.023 319.014 187.24 306.361 198.853" fill="none" opacity="1" stroke="#4a865f" stroke-linecap="butt" stroke-linejoin="miter" stroke-width="2"/>
<path d="M200.981 387.683C195.721 474.963 263.101 546.633 348.581 553.683C348.774 553.696 348.874 553.603 348.881 553.403C349.534 530.83 349.748 508.313 349.521 485.853C349.501 483.843 349.551 482.603 347.871 481.233C335.741 471.373 322.931 462.563 310.401 453.233C287.201 435.953 262.731 420.013 238.581 404.073C232.931 400.343 224.671 394.093 227.011 386.363C227.818 383.696 229.481 381.606 232.001 380.093C235.994 377.686 240.308 378.066 244.941 381.233C287.048 410.02 321.654 433.993 348.761 453.153" fill="none" opacity="1" stroke="#5d986c" stroke-linecap="butt" stroke-linejoin="miter" stroke-width="2"/>
<path d="M369.921 458.653L370.551 497.683C370.557 497.88 370.671 498.057 370.847 498.142C371.023 498.227 371.23 498.204 371.381 498.083C390.081 483.39 409.118 469.493 428.491 456.393C440.511 448.273 454.251 440.653 467.061 432.633C471.651 429.763 478.191 430.303 481.731 434.503C484.931 438.293 484.991 444.363 481.901 448.323C481.068 449.39 479.404 450.596 476.911 451.943C473.104 453.996 469.361 456.17 465.681 458.463C444.941 471.396 424.674 485.046 404.881 499.413C398.481 504.053 387.444 512.876 371.771 525.883" fill="none" opacity="1" stroke="#198d54" stroke-linecap="butt" stroke-linejoin="miter" stroke-width="2"/>
<path d="M371.771 525.883C370.531 526.396 370.001 527.543 370.181 529.323" fill="none" opacity="1" stroke="#51845e" stroke-linecap="butt" stroke-linejoin="miter" stroke-width="2"/>
<path d="M370.181 529.323L370.191 552.143C370.191 553.123 370.678 553.576 371.651 553.503C400.471 551.37 426.918 541.886 450.991 525.053C478.318 505.946 497.558 481.406 508.711 451.433C518.401 425.403 521.831 397.503 516.101 370.313" fill="none" opacity="1" stroke="#198d54" stroke-linecap="butt" stroke-linejoin="miter" stroke-width="2"/>
<path d="M516.101 370.313L515.071 364.943" fill="none" opacity="1" stroke="#19804d" stroke-linecap="butt" stroke-linejoin="miter" stroke-width="2"/>
<path d="M537.991 426.493L537.731 425.493C537.668 425.235 537.431 425.059 537.166 425.074C536.901 425.088 536.685 425.29 536.651 425.553C536.071 429.98 535.211 434.27 534.071 438.423C532.904 442.676 531.611 446.9 530.191 451.093C529.771 452.353 529.411 454.303 528.701 455.763C527.868 457.456 527.361 458.56 527.181 459.073C524.501 466.726 520.851 474.393 516.231 482.073C510.651 491.353 505.411 499.356 500.511 506.083C499.978 506.816 498.991 507.706 497.551 508.753C496.391 509.6 495.424 510.486 494.651 511.413C491.964 514.593 489.228 517.733 486.441 520.833C485.661 521.693 484.551 522.693 483.111 523.833C480.161 526.173 477.261 529.703 475.071 531.623C472.571 533.823 470.108 536.06 467.681 538.333C466.861 539.093 465.731 538.843 464.741 539.673C462.454 541.606 459.998 543.3 457.371 544.753C456.521 545.223 456.111 545.823 455.611 546.613C455.431 546.9 455.184 547.113 454.871 547.253C452.611 548.306 450.351 549.37 448.091 550.443C445.801 551.523 443.811 551.693 442.131 554.143C441.851 554.543 441.954 554.783 442.441 554.863L443.471 555.013" fill="none" opacity="1" stroke="#1e3a2c" stroke-linecap="butt" stroke-linejoin="miter" stroke-width="2"/>
<path d="M217.371 332.953L213.001 332.613C212.608 332.58 212.321 332.74 212.141 333.093L209.431 338.303" fill="none" opacity="1" stroke="#b8d9b7" stroke-linecap="butt" stroke-linejoin="miter" stroke-width="2"/>
<path d="M346.351 435.573C348.144 439.306 348.718 443.186 348.071 447.213C347.941 448.003 347.28 448.597 346.481 448.643C342.031 448.893 334.201 441.123 331.191 438.013C327.101 433.783 325.801 427.743 322.201 423.643C320.614 421.836 318.811 420.326 316.791 419.113C304.471 411.733 293.191 404.736 282.951 398.123C279.041 395.603 274.241 393.063 270.721 390.653C248.681 375.586 234.254 366.09 227.441 362.163C221.294 358.616 215.201 354.986 209.161 351.273C208.908 351.12 208.698 350.92 208.531 350.673L207.691 349.453C207.551 349.253 207.401 349.24 207.241 349.413C207.168 349.493 207.091 349.566 207.011 349.633C206.784 349.826 206.628 349.783 206.541 349.503C206.514 349.403 206.491 349.286 206.471 349.153" fill="none" opacity="1" stroke="#7dd091" stroke-linecap="butt" stroke-linejoin="miter" stroke-width="2"/>
<path d="M516.101 370.313L513.271 366.193C513.071 365.9 512.821 365.846 512.521 366.033C489.061 380.433 464.471 392.923 441.441 408.023C438.801 409.753 435.481 411.203 433.171 412.693C426.358 417.066 419.478 421.33 412.531 425.483C400.651 432.573 389.251 440.963 377.351 448.413C377.204 448.506 376.121 449.05 374.101 450.043C373.054 450.556 372.074 451.176 371.161 451.903C370.891 452.117 370.742 452.449 370.761 452.793C370.861 454.66 370.588 456.386 369.941 457.973" fill="none" opacity="1" stroke="#00c068" stroke-linecap="butt" stroke-linejoin="miter" stroke-width="2"/>
<path d="M370.181 529.323C371.228 528.35 371.758 527.203 371.771 525.883" fill="none" opacity="1" stroke="#38c479" stroke-linecap="butt" stroke-linejoin="miter" stroke-width="2"/>
<path d="M125.036 240.796C128.111 235.951 126.675 229.531 121.83 226.456L88.4628 205.28C83.6179 202.205 77.1977 203.64 74.1228 208.485L73.7258 209.11C70.6511 213.955 72.0865 220.376 76.9318 223.45L110.299 244.626C115.144 247.701 121.564 246.266 124.639 241.421L125.036 240.796M645.421 208.395C642.395 203.552 636.016 202.079 631.173 205.105L596.963 226.483C592.12 229.509 590.647 235.888 593.673 240.731L594.161 241.511C597.187 246.354 603.566 247.827 608.409 244.801L642.619 223.423C647.462 220.397 648.935 214.018 645.909 209.175L645.421 208.395M95.3198 361.561C95.3105 356.171 90.9331 351.809 85.5428 351.818L45.6428 351.888C40.2525 351.897 35.8904 356.275 35.8998 361.665L35.9018 362.985C35.9112 368.375 40.2885 372.737 45.6788 372.728L85.5788 372.658C90.9691 372.649 95.3312 368.271 95.3218 362.881L95.3198 361.561M683.835 361.293C683.798 355.952 679.438 351.653 674.098 351.69L633.018 351.977C627.678 352.015 623.379 356.374 623.416 361.714L623.427 363.294C623.464 368.635 627.824 372.934 633.165 372.896L674.243 372.609C679.583 372.572 683.883 368.213 683.846 362.872L683.835 361.292M604.371 478.803C593.661 476.553 588.251 490.423 595.801 497.343C599.851 501.063 606.351 504.023 610.601 506.923C620.261 513.516 627.071 517.836 631.031 519.883C641.151 525.103 651.791 512.843 644.891 503.923C643.818 502.523 641.441 500.666 637.761 498.353C629.448 493.12 621.094 487.943 612.701 482.823C608.934 480.523 606.158 479.183 604.371 478.803M125.821 493.573C128.871 486.463 124.461 478.683 116.481 478.803C114.634 478.83 112.251 479.706 109.331 481.433C99.0575 487.54 88.8242 493.706 78.6308 499.933C72.3508 503.773 70.4808 509.543 74.0708 516.083C76.1775 519.916 79.3942 521.55 83.7208 520.983C85.9342 520.69 88.9208 519.373 92.6808 517.033C100.101 512.42 107.544 507.863 115.011 503.363C120.651 499.963 123.671 498.543 125.821 493.573M232.159 603.218C235.488 598.585 234.431 592.13 229.798 588.801L229.311 588.451C224.678 585.122 218.223 586.178 214.894 590.811L190.164 625.228C186.834 629.861 187.891 636.316 192.524 639.645L193.011 639.995C197.644 643.325 204.098 642.268 207.428 637.635L232.158 603.218M504.598 590.587C501.403 586.008 495.101 584.885 490.522 588.079L489.521 588.777C484.941 591.972 483.819 598.275 487.014 602.854L511.364 637.759C514.558 642.339 520.86 643.462 525.44 640.267L526.441 639.569C531.021 636.374 532.143 630.072 528.948 625.492L504.598 590.587M370.126 637.111C370.135 631.539 365.626 627.014 360.054 627.004L359.294 627.002C353.721 626.992 349.195 631.502 349.186 637.075L349.116 677.595C349.106 683.167 353.616 687.692 359.188 687.702L359.948 687.704C365.521 687.714 370.046 683.204 370.056 677.631L370.126 637.111" fill="none" opacity="1" stroke="#858f86" stroke-linecap="butt" stroke-linejoin="miter" stroke-width="2"/>
</g>
<g opacity="1">
<path d="M35.5908 212.163C49.5042 181.81 67.4475 154.08 89.4208 128.973C99.5208 117.433 110.108 106.36 121.181 95.7531C139.008 78.6798 159.818 63.3331 183.611 49.7131C189.021 46.6131 196.261 43.0631 202.581 39.7131C241.061 19.3531 283.291 8.2831 326.101 3.0931C340.781 1.3031 356.181 2.0731 371.161 2.1731C378.781 2.22643 385.434 2.52643 391.121 3.0731C446.188 8.37976 497.224 25.7564 544.231 55.2031C558.604 64.2031 572.424 73.9864 585.691 84.5531C589.521 87.6131 593.921 92.2331 598.251 95.8831C600.498 97.7764 602.191 99.2731 603.331 100.373C618.224 114.686 630.658 128.233 640.631 141.013C651.804 155.32 662.851 172.496 673.771 192.543C684.044 211.403 692.148 230.22 698.081 248.993C705.681 273.073 711.621 298.423 714.511 327.333C714.638 328.606 714.811 331.546 715.031 336.153C715.211 340.113 715.901 344.303 716.011 347.943C717.478 400.916 708.404 452.213 688.791 501.833C684.331 513.126 679.588 523.416 674.561 532.703C661.554 556.756 646.938 577.863 630.711 596.023C624.991 602.433 619.751 608.663 614.531 613.893C567.211 661.386 511.191 693.956 446.471 711.603C440.598 713.203 434.098 714.67 426.971 716.003C414.991 718.236 404.388 719.966 395.161 721.193C391.181 721.72 386.524 722.11 381.191 722.363C378.778 722.476 374.114 722.76 367.201 723.213C361.048 723.613 355.538 723.596 350.671 723.163C343.761 722.553 336.491 722.473 331.021 721.913C294.601 718.153 258.501 709.693 224.881 694.993C198.901 683.633 175.071 671.313 153.291 655.383C123.498 633.603 97.1942 607.823 74.3808 578.043C34.0608 525.423 11.4308 461.623 4.75084 396.193C3.04084 379.383 3.62084 361.633 3.78084 344.493C3.84751 337.16 4.20751 330.51 4.86084 324.543C9.20084 284.836 19.4442 247.376 35.5908 212.163ZM329.651 24.3731C288.521 28.8831 248.251 39.7031 211.461 58.8131L212.161 57.7431C212.368 57.4231 212.281 57.2864 211.901 57.3331C210.328 57.5064 208.954 58.1298 207.781 59.2031C207.521 59.4431 207.214 59.5664 206.861 59.5731C206.454 59.5864 206.061 59.6898 205.681 59.8831C199.574 63.0564 193.561 66.4064 187.641 69.9331C186.131 70.8431 184.001 71.2031 182.571 73.1931C182.378 73.4664 182.128 73.6598 181.821 73.7731C180.181 74.4064 178.661 75.2198 177.261 76.2131C175.501 77.4664 174.088 78.3931 173.021 78.9931C170.261 80.5398 167.684 82.3731 165.291 84.4931C162.344 87.1131 159.384 89.7264 156.411 92.3331C155.344 93.2731 153.828 94.3064 151.861 95.4331C150.248 96.3531 148.731 97.4164 147.311 98.6231C143.844 101.55 140.401 104.5 136.981 107.473C134.281 109.826 131.031 112.97 127.231 116.903C122.601 121.683 117.341 126.343 113.181 131.033C103.888 141.526 95.0275 152.38 86.6008 163.593C83.5108 167.713 80.0208 173.543 76.2608 178.243C74.7208 180.173 73.5108 182.533 71.9208 184.563C70.3008 186.61 69.1908 188.156 68.5908 189.203C63.4408 198.113 59.6608 207.513 54.8508 216.563C53.5042 219.09 52.3475 221.603 51.3808 224.103C49.0608 230.11 46.7075 236.1 44.3208 242.073C43.6108 243.853 43.5408 245.783 42.6608 247.613C41.2342 250.58 40.1075 253.646 39.2808 256.813C37.6942 262.893 36.8908 265.97 36.8708 266.043C35.1175 271.863 32.9208 279.883 30.2808 290.103C30.0342 291.063 29.8742 291.866 29.8008 292.513C29.6742 293.68 29.5442 294.466 29.4108 294.873C28.1642 298.64 27.2975 302.486 26.8108 306.413C26.2575 310.926 25.9775 313.206 25.9708 313.253C25.4042 317.146 24.9208 321.053 24.5208 324.973C24.3608 326.493 23.6108 328.033 23.5508 329.983C23.0108 348.016 22.8142 363.6 22.9608 376.733C22.9808 378.56 23.4542 379.82 24.3808 380.513C27.2475 416.44 34.8742 451.333 47.2608 485.193C62.2808 526.263 87.2208 564.063 117.291 595.353C167.198 647.286 227.654 680.616 298.661 695.343C330.168 701.87 361.334 703.406 392.161 699.953C450.181 693.453 503.224 673.3 551.291 639.493C551.251 639.686 551.258 639.86 551.311 640.013C551.451 640.366 551.681 640.436 552.001 640.223C567.921 629.643 581.471 616.893 595.761 603.713C602.821 597.2 608.028 591.903 611.381 587.823C616.414 581.703 621.558 575.676 626.811 569.743C626.971 569.563 627.061 569.333 627.081 569.053C627.094 568.826 627.178 568.612 627.321 568.443C629.841 565.456 632.264 562.393 634.591 559.253C636.061 557.253 638.911 554.063 640.561 550.963C641.321 549.543 642.621 548.713 643.311 547.233C644.038 545.66 644.414 544.85 644.441 544.803C648.621 537.723 652.831 530.663 657.071 523.623C659.698 519.25 663.304 511.773 667.891 501.193C670.131 496.04 672.448 489.793 674.841 482.453C677.168 475.306 679.618 468.196 682.191 461.123C683.044 458.783 683.874 455.743 684.681 452.003C684.874 451.103 685.244 450.126 685.791 449.073C687.181 446.423 686.971 442.843 687.331 439.883C687.344 439.81 687.384 439.756 687.451 439.723C687.531 439.683 687.614 439.65 687.701 439.623C687.894 439.55 688.018 439.413 688.071 439.213C688.591 437.073 688.901 434.496 689.001 431.483C689.008 431.283 689.114 431.163 689.321 431.123C689.541 431.083 689.671 430.953 689.711 430.733C690.138 428.433 690.518 426.126 690.851 423.813C691.391 419.993 692.851 414.293 692.511 409.073C692.491 408.76 692.614 408.513 692.881 408.333C693.334 408.026 693.641 407.49 693.801 406.723C694.441 403.683 694.851 400.863 695.031 398.263C695.298 394.476 695.554 391.66 695.801 389.813C696.114 387.406 696.311 384.99 696.391 382.563C696.471 380.353 697.361 377.793 697.161 375.273L696.921 372.183C696.781 363.856 696.574 355.5 696.301 347.113C696.288 346.801 696.124 346.514 695.863 346.347C695.601 346.179 695.275 346.151 694.991 346.273C694.878 346.32 694.781 346.723 694.701 347.483C694.041 326.23 690.904 304.19 685.291 281.363C679.991 259.83 673.264 240.213 665.111 222.513C643.751 176.133 611.081 133.013 570.851 100.493C560.451 92.0798 551.658 85.4698 544.471 80.6631C496.124 48.3098 442.831 29.4698 384.591 24.1431L385.351 23.8631C385.464 23.8231 385.478 23.7631 385.391 23.6831L385.031 23.3431C384.824 23.1498 384.581 23.0398 384.301 23.0131C368.668 21.5798 353.014 21.2764 337.341 22.1031C334.381 22.2531 331.681 22.9431 328.841 23.6031C328.768 23.6164 328.714 23.6564 328.681 23.7231C328.628 23.8231 328.578 23.9198 328.531 24.0131C328.506 24.0718 328.512 24.1396 328.547 24.1911C328.582 24.2426 328.64 24.27 328.701 24.2631C329.061 24.2231 329.378 24.2598 329.651 24.3731Z" fill="#314c39" fill-rule="nonzero" opacity="1" stroke="none"/>
<path d="M522.421 311.823L503.641 323.013C497.521 308.106 490.261 294.163 481.861 281.183C470.791 264.103 457.811 246.443 444.871 231.993C430.851 216.34 419.831 204.956 411.811 197.843C398.824 186.33 385.418 174.713 371.591 162.993C370.458 162.033 369.894 162.293 369.901 163.773C370.161 217.04 370.211 270.703 370.051 324.763C370.041 327.923 370.361 331.393 370.451 334.663C370.457 334.847 370.568 335.011 370.736 335.086C370.904 335.16 371.1 335.132 371.241 335.013C391.728 317.613 413.118 301.376 435.411 286.303C438.471 284.233 441.341 282.043 444.271 279.863C448.404 276.796 450.621 275.183 450.921 275.023C464.231 268.233 474.011 286.843 461.251 294.793C450.661 301.393 440.251 309.213 430.771 316.083C410.651 330.656 391.044 345.89 371.951 361.783C370.798 362.75 370.208 364.066 370.181 365.733C370.041 376.546 370.004 384.6 370.071 389.893C363.738 387.993 357.491 387.643 351.331 388.843C350.998 388.91 350.831 388.776 350.831 388.443L350.901 333.473C350.901 333.093 350.718 332.953 350.351 333.053L349.631 333.253C349.658 326.053 349.554 318.88 349.321 311.733C349.281 310.506 348.841 309.563 348.001 308.903C327.241 292.636 306.708 276.083 286.401 259.243C281.051 254.813 277.661 249.163 282.241 242.733C286.931 236.153 295.221 238.123 300.661 242.723C312.948 253.11 326.741 264.41 342.041 276.623C343.608 277.876 345.514 279.1 347.761 280.293C347.998 280.418 348.283 280.412 348.514 280.275C348.744 280.138 348.887 279.891 348.891 279.623L349.701 162.383L350.941 162.173C351.182 162.134 351.405 162.022 351.581 161.853C354.501 159.18 357.928 157.99 361.861 158.283C363.611 158.413 364.961 159.633 366.661 160.273C366.835 160.333 367.029 160.26 367.12 160.102C367.212 159.944 367.174 159.746 367.031 159.633L361.251 154.913C360.419 154.234 359.239 154.177 358.341 154.773C354.974 157.02 351.691 159.15 348.491 161.163C345.538 163.016 342.848 165.056 340.421 167.283C331.421 175.543 325.371 180.85 322.271 183.203C320.758 184.356 319.471 185.496 318.411 186.623C317.078 188.05 315.828 189.186 314.661 190.033C311.221 192.513 308.454 195.453 306.361 198.853L276.651 229.433C276.971 228.626 276.584 228.413 275.491 228.793C275.138 228.913 274.834 229.14 274.581 229.473C271.711 233.163 268.081 236.623 265.481 239.983C262.088 244.356 259.798 247.426 258.611 249.193C258.231 249.76 258.378 250.176 259.051 250.443C246.238 266.83 234.808 284.123 224.761 302.323C224.101 303.523 223.084 305.623 221.711 308.623L204.171 296.733C209.824 284.693 216.341 273.34 223.721 262.673C227.594 258.866 230.951 254.646 233.791 250.013C235.591 247.073 238.291 244.533 240.361 241.683C242.714 238.443 244.311 236.333 245.151 235.353C250.604 228.96 255.964 222.49 261.231 215.943C264.124 212.336 267.731 208.393 272.051 204.113C279.924 196.32 287.344 189.25 294.311 182.903C296.411 180.983 301.311 176.47 309.011 169.363C320.584 158.676 332.918 148.563 346.011 139.023C346.215 138.88 346.303 138.605 346.231 138.333C346.178 138.14 345.804 138.043 345.111 138.043C350.401 134.103 356.291 127.213 363.631 130.953C363.964 131.126 365.858 132.456 369.311 134.943C388.344 148.683 407.601 164.726 427.081 183.073C447.614 202.426 465.531 221.996 480.831 241.783C497.531 263.383 511.394 286.73 522.421 311.823Z" fill="#314c39" fill-rule="nonzero" opacity="1" stroke="none"/>
<path d="M200.981 387.683C195.721 474.963 263.101 546.633 348.581 553.683C348.774 553.696 348.874 553.603 348.881 553.403C349.534 530.83 349.748 508.313 349.521 485.853C349.501 483.843 349.551 482.603 347.871 481.233C335.741 471.373 322.931 462.563 310.401 453.233C287.201 435.953 262.731 420.013 238.581 404.073C232.931 400.343 224.671 394.093 227.011 386.363C227.818 383.696 229.481 381.606 232.001 380.093C235.994 377.686 240.308 378.066 244.941 381.233C287.048 410.02 321.654 433.993 348.761 453.153C348.781 453.513 349.064 453.666 349.611 453.613C349.852 453.587 350.095 453.632 350.311 453.743L354.691 455.923C354.998 456.076 355.321 456.13 355.661 456.083C356.134 456.03 356.531 456.19 356.851 456.563C357.038 456.783 357.271 456.926 357.551 456.993C361.024 457.88 364.551 458.25 368.131 458.103C368.531 458.09 368.758 458.276 368.811 458.663L368.991 460.003C369.01 460.141 369.124 460.249 369.262 460.259C369.4 460.269 369.522 460.178 369.551 460.043L369.921 458.653L370.551 497.683C370.557 497.88 370.671 498.057 370.847 498.142C371.023 498.227 371.23 498.204 371.381 498.083C390.081 483.39 409.118 469.493 428.491 456.393C440.511 448.273 454.251 440.653 467.061 432.633C471.651 429.763 478.191 430.303 481.731 434.503C484.931 438.293 484.991 444.363 481.901 448.323C481.068 449.39 479.404 450.596 476.911 451.943C473.104 453.996 469.361 456.17 465.681 458.463C444.941 471.396 424.674 485.046 404.881 499.413C398.481 504.053 387.444 512.876 371.771 525.883C370.531 526.396 370.001 527.543 370.181 529.323L370.191 552.143C370.191 553.123 370.678 553.576 371.651 553.503C400.471 551.37 426.918 541.886 450.991 525.053C478.318 505.946 497.558 481.406 508.711 451.433C518.401 425.403 521.831 397.503 516.101 370.313L515.071 364.943L532.691 355.813C532.997 355.656 533.36 355.66 533.662 355.824C533.965 355.988 534.166 356.291 534.201 356.633C534.494 359.413 534.948 362.18 535.561 364.933C536.214 367.846 536.648 370.61 536.861 373.223C537.114 376.356 537.491 379.48 537.991 382.593C538.564 386.166 538.881 389.286 538.941 391.953C539.048 397.36 539.128 402.766 539.181 408.173C539.181 408.5 539.288 408.79 539.501 409.043C539.921 409.55 540.008 410.15 539.761 410.843C539.748 410.883 539.758 410.896 539.791 410.883C539.811 410.876 539.828 410.87 539.841 410.863C539.874 410.863 539.888 410.86 539.881 410.853C539.681 410.093 539.761 409.533 540.121 409.173L537.991 426.493L537.731 425.493C537.668 425.235 537.431 425.059 537.166 425.074C536.901 425.088 536.685 425.29 536.651 425.553C536.071 429.98 535.211 434.27 534.071 438.423C532.904 442.676 531.611 446.9 530.191 451.093C529.771 452.353 529.411 454.303 528.701 455.763C527.868 457.456 527.361 458.56 527.181 459.073C524.501 466.726 520.851 474.393 516.231 482.073C510.651 491.353 505.411 499.356 500.511 506.083C499.978 506.816 498.991 507.706 497.551 508.753C496.391 509.6 495.424 510.486 494.651 511.413C491.964 514.593 489.228 517.733 486.441 520.833C485.661 521.693 484.551 522.693 483.111 523.833C480.161 526.173 477.261 529.703 475.071 531.623C472.571 533.823 470.108 536.06 467.681 538.333C466.861 539.093 465.731 538.843 464.741 539.673C462.454 541.606 459.998 543.3 457.371 544.753C456.521 545.223 456.111 545.823 455.611 546.613C455.431 546.9 455.184 547.113 454.871 547.253C452.611 548.306 450.351 549.37 448.091 550.443C445.801 551.523 443.811 551.693 442.131 554.143C441.851 554.543 441.954 554.783 442.441 554.863L443.471 555.013C420.731 566.926 396.731 573.783 371.471 575.583C370.958 575.62 370.564 576.054 370.571 576.573C370.664 582.766 370.598 588.986 370.371 595.233C370.264 598.24 368.694 600.976 365.661 603.443C359.921 608.103 352.601 604.663 350.031 598.473C349.304 596.726 348.924 594.183 348.891 590.843C348.851 586.09 348.891 581.386 349.011 576.733C349.023 576.289 348.688 575.915 348.251 575.883C304.944 572.363 267.391 555.926 235.591 526.573C223.144 515.08 213.038 502.933 205.271 490.133C188.651 462.753 179.061 432.633 179.021 400.493L179.231 401.413C179.264 401.574 179.409 401.684 179.574 401.672C179.738 401.659 179.873 401.528 179.891 401.363C180.851 390.243 180.641 378.283 182.011 368.413C183.331 358.933 184.811 348.623 188.101 339.593C188.15 339.46 188.257 339.357 188.393 339.313C188.528 339.268 188.678 339.287 188.801 339.363L203.371 348.533C204.166 349.029 204.576 349.962 204.401 350.883C203.228 357.016 202.248 363.183 201.461 369.383C201.448 369.483 201.034 371.853 200.221 376.493C199.601 380.003 200.291 383.473 199.821 386.813C199.634 388.133 200.021 388.423 200.981 387.683Z" fill="#314c39" fill-rule="nonzero" opacity="1" stroke="none"/>
</g>
<path d="M503.641 323.013L379.481 396.803C379.168 396.99 378.871 396.97 378.591 396.743L370.071 389.893C370.004 384.6 370.041 376.546 370.181 365.733C370.208 364.066 370.798 362.75 371.951 361.783C391.044 345.89 410.651 330.656 430.771 316.083C440.251 309.213 450.661 301.393 461.251 294.793C474.011 286.843 464.231 268.233 450.921 275.023C450.621 275.183 448.404 276.796 444.271 279.863C441.341 282.043 438.471 284.233 435.411 286.303C413.118 301.376 391.728 317.613 371.241 335.013C371.1 335.132 370.904 335.16 370.736 335.086C370.568 335.011 370.457 334.847 370.451 334.663C370.361 331.393 370.041 327.923 370.051 324.763C370.211 270.703 370.161 217.04 369.901 163.773C369.894 162.293 370.458 162.033 371.591 162.993C385.418 174.713 398.824 186.33 411.811 197.843C419.831 204.956 430.851 216.34 444.871 231.993C457.811 246.443 470.791 264.103 481.861 281.183C490.261 294.163 497.521 308.106 503.641 323.013ZM516.101 370.313C521.831 397.503 518.401 425.403 508.711 451.433C497.558 481.406 478.318 505.946 450.991 525.053C426.918 541.886 400.471 551.37 371.651 553.503C370.678 553.576 370.191 553.123 370.191 552.143L370.181 529.323C371.228 528.35 371.758 527.203 371.771 525.883C387.444 512.876 398.481 504.053 404.881 499.413C424.674 485.046 444.941 471.396 465.681 458.463C469.361 456.17 473.104 453.996 476.911 451.943C479.404 450.596 481.068 449.39 481.901 448.323C484.991 444.363 484.931 438.293 481.731 434.503C478.191 430.303 471.651 429.763 467.061 432.633C454.251 440.653 440.511 448.273 428.491 456.393C409.118 469.493 390.081 483.39 371.381 498.083C371.23 498.204 371.023 498.227 370.847 498.142C370.671 498.057 370.557 497.88 370.551 497.683L369.921 458.653C369.868 458.493 369.874 458.266 369.941 457.973C370.588 456.386 370.861 454.66 370.761 452.793C370.742 452.449 370.891 452.117 371.161 451.903C372.074 451.176 373.054 450.556 374.101 450.043C376.121 449.05 377.204 448.506 377.351 448.413C389.251 440.963 400.651 432.573 412.531 425.483C419.478 421.33 426.358 417.066 433.171 412.693C435.481 411.203 438.801 409.753 441.441 408.023C464.471 392.923 489.061 380.433 512.521 366.033C512.821 365.846 513.071 365.9 513.271 366.193C513.271 366.193 516.101 370.313 516.101 370.313Z" fill="#00cd6f" fill-rule="nonzero" opacity="1" stroke="none"/>
<g opacity="1">
<path d="M384.591 24.1431C442.831 29.4698 496.124 48.3098 544.471 80.6631C551.658 85.4698 560.451 92.0798 570.851 100.493C611.081 133.013 643.751 176.133 665.111 222.513C673.264 240.213 679.991 259.83 685.291 281.363C690.904 304.19 694.041 326.23 694.701 347.483C696.231 377.233 693.141 404.353 687.821 430.973C683.381 453.213 676.701 475.3 667.781 497.233C665.201 503.573 662.424 509.633 659.451 515.413C634.161 564.583 596.451 607.043 551.291 639.493C503.224 673.3 450.181 693.453 392.161 699.953C361.334 703.406 330.168 701.87 298.661 695.343C227.654 680.616 167.198 647.286 117.291 595.353C87.2208 564.063 62.2808 526.263 47.2608 485.193C34.8742 451.333 27.2475 416.44 24.3808 380.513C21.8008 317.046 35.0375 257.526 64.0908 201.953C71.1608 188.433 80.9408 174.353 89.5908 162.653C114.151 129.433 143.924 101.06 178.911 77.5331C186.518 72.4198 197.368 66.1798 211.461 58.8131C248.251 39.7031 288.521 28.8831 329.651 24.3731C347.958 22.3731 366.271 22.2964 384.591 24.1431ZM363.131 36.3531C357.371 34.5631 349.431 37.9431 349.391 44.9831C349.298 58.9831 349.218 72.9831 349.151 86.9831C349.121 92.7931 351.631 98.4731 357.741 99.5431C360.621 100.05 363.244 99.2531 365.611 97.1531C368.524 94.5664 369.994 90.9264 370.021 86.2331C370.088 73.5931 370.058 60.9564 369.931 48.3231C369.871 42.6931 368.631 38.0631 363.131 36.3531ZM217.421 136.953C226.181 142.923 239.271 131.973 232.381 122.283C223.994 110.49 215.654 98.6631 207.361 86.8031C200.961 77.6531 187.001 84.9731 189.451 95.2531C189.898 97.0998 191.371 99.8831 193.871 103.603C199.838 112.47 205.814 121.326 211.801 130.173C214.261 133.813 216.134 136.073 217.421 136.953ZM529.085 99.5061C532.375 94.8589 531.275 88.4243 526.628 85.1341L526.188 84.8221C521.541 81.531 515.105 82.6306 511.815 87.2781L487.117 122.16C483.827 126.807 484.927 133.242 489.574 136.532L490.014 136.844C494.661 140.135 501.096 139.036 504.387 134.388C504.387 134.388 529.085 99.5061 529.085 99.5061ZM345.111 138.043C298.441 173.353 256.251 213.723 223.721 262.673C216.341 273.34 209.824 284.693 204.171 296.733C187.778 286.773 175.994 279.383 168.821 274.563C163.908 271.263 159.234 270.79 154.801 273.143C149.851 275.783 147.051 281.663 149.501 286.923C150.868 289.856 152.441 291.87 154.221 292.963C160.661 296.93 167.118 301.02 173.591 305.233C172.281 306.053 170.811 305.693 169.611 304.653C162.531 298.503 153.041 299.193 152.461 310.243C152.281 313.753 152.721 315.503 155.761 317.623C160.968 321.256 166.314 324.676 171.801 327.883C176.221 330.473 180.251 333.543 184.491 336.363C184.719 336.521 185.008 336.56 185.272 336.47C185.536 336.379 185.743 336.169 185.831 335.903C187.231 331.596 188.651 327.17 190.091 322.623C190.364 321.756 190.861 320.756 191.581 319.623C191.761 319.343 191.784 319.05 191.651 318.743C191.324 317.996 191.221 317.306 191.341 316.673C192.081 316.8 192.608 317.01 192.921 317.303C193.201 317.576 193.218 318.043 192.971 318.703C183.071 345.016 178.421 372.28 179.021 400.493C179.061 432.633 188.651 462.753 205.271 490.133C213.038 502.933 223.144 515.08 235.591 526.573C267.391 555.926 304.944 572.363 348.251 575.883C348.688 575.915 349.023 576.289 349.011 576.733C348.891 581.386 348.851 586.09 348.891 590.843C348.924 594.183 349.304 596.726 350.031 598.473C352.601 604.663 359.921 608.103 365.661 603.443C368.694 600.976 370.264 598.24 370.371 595.233C370.598 588.986 370.664 582.766 370.571 576.573C370.564 576.054 370.958 575.62 371.471 575.583C396.731 573.783 420.731 566.926 443.471 555.013C448.044 552.82 453.814 549.353 460.781 544.613C498.001 519.34 522.558 485.293 534.451 442.473C536.164 436.326 537.344 431 537.991 426.493L540.121 409.173C541.181 390.38 539.504 371.936 535.091 353.843C542.471 349.743 549.768 345.73 556.981 341.803C559.601 340.383 561.641 337.353 561.651 334.193C561.678 328.673 558.774 325.256 552.941 323.943C551.628 323.643 550.161 323.97 548.541 324.923C548.241 325.103 547.971 325.063 547.731 324.803C547.511 324.55 547.478 324.213 547.631 323.793C552.224 321.173 558.634 317.373 566.861 312.393C578.131 305.583 573.011 288.023 560.261 290.523C558.114 290.95 554.838 292.513 550.431 295.213C541.084 300.953 531.748 306.49 522.421 311.823C511.394 286.73 497.531 263.383 480.831 241.783C465.531 221.996 447.614 202.426 427.081 183.073C407.601 164.726 388.344 148.683 369.311 134.943C365.858 132.456 363.964 131.126 363.631 130.953C356.291 127.213 350.401 134.103 345.111 138.043ZM125.036 240.796C128.111 235.951 126.675 229.531 121.83 226.456L88.4628 205.28C83.6179 202.205 77.1977 203.64 74.1228 208.485L73.7258 209.11C70.6511 213.955 72.0865 220.376 76.9318 223.45L110.299 244.626C115.144 247.701 121.564 246.266 124.639 241.421C124.639 241.421 125.036 240.796 125.036 240.796ZM645.421 208.396C642.395 203.553 636.016 202.08 631.173 205.106L596.963 226.483C592.12 229.509 590.647 235.888 593.673 240.731L594.161 241.511C597.187 246.354 603.566 247.827 608.409 244.801L642.619 223.423C647.462 220.397 648.935 214.018 645.909 209.175L645.421 208.395L645.421 208.396ZM95.3208 361.56C95.3115 356.17 90.9341 351.808 85.5438 351.817L45.6438 351.887C40.2535 351.896 35.8914 356.274 35.9008 361.664L35.9028 362.984C35.9122 368.374 40.2895 372.736 45.6798 372.727L85.5798 372.657C90.9701 372.648 95.3322 368.27 95.3228 362.88L95.3208 361.56ZM683.836 361.291C683.798 355.951 679.439 351.652 674.099 351.689L633.019 351.976C627.679 352.014 623.38 356.373 623.417 361.713L623.428 363.293C623.465 368.634 627.825 372.933 633.166 372.895L674.244 372.608C679.584 372.571 683.884 368.212 683.847 362.871C683.847 362.871 683.836 361.291 683.836 361.291ZM604.371 478.803C593.661 476.553 588.251 490.423 595.801 497.343C599.851 501.063 606.351 504.023 610.601 506.923C620.261 513.516 627.071 517.836 631.031 519.883C641.151 525.103 651.791 512.843 644.891 503.923C643.818 502.523 641.441 500.666 637.761 498.353C629.448 493.12 621.094 487.943 612.701 482.823C608.934 480.523 606.158 479.183 604.371 478.803ZM125.821 493.573C128.871 486.463 124.461 478.683 116.481 478.803C114.634 478.83 112.251 479.706 109.331 481.433C99.0575 487.54 88.8242 493.706 78.6308 499.933C72.3508 503.773 70.4808 509.543 74.0708 516.083C76.1775 519.916 79.3942 521.55 83.7208 520.983C85.9342 520.69 88.9208 519.373 92.6808 517.033C100.101 512.42 107.544 507.863 115.011 503.363C120.651 499.963 123.671 498.543 125.821 493.573ZM232.159 603.218C235.488 598.585 234.431 592.13 229.798 588.801L229.311 588.451C224.678 585.122 218.223 586.178 214.894 590.811L190.164 625.228C186.834 629.861 187.891 636.316 192.524 639.645L193.011 639.995C197.644 643.325 204.098 642.268 207.428 637.635L232.158 603.218L232.159 603.218ZM504.598 590.587C501.403 586.008 495.101 584.885 490.522 588.079L489.521 588.777C484.941 591.972 483.819 598.275 487.014 602.854L511.364 637.759C514.558 642.339 520.86 643.462 525.44 640.267L526.441 639.569C531.021 636.374 532.143 630.072 528.948 625.492C528.948 625.492 504.598 590.587 504.598 590.587ZM370.126 637.111C370.135 631.539 365.626 627.014 360.054 627.004L359.294 627.002C353.721 626.992 349.195 631.502 349.186 637.075L349.116 677.595C349.106 683.167 353.616 687.692 359.188 687.702L359.948 687.704C365.521 687.714 370.046 683.204 370.056 677.631C370.056 677.631 370.126 637.111 370.126 637.111Z" fill="#fff6ec" fill-rule="nonzero" opacity="1" stroke="none"/>
<path d="M217.371 332.953L213.001 332.613C212.608 332.58 212.321 332.74 212.141 333.093L209.431 338.303L211.951 330.753C212.058 330.426 212.284 330.29 212.631 330.343C214.231 330.59 215.811 331.46 217.371 332.953Z" fill="#fff6ec" fill-rule="nonzero" opacity="1" stroke="none"/>
</g>
<g opacity="1">
<path d="M384.591 24.1431C366.271 22.2964 347.958 22.3731 329.651 24.3731C329.378 24.2598 329.061 24.2231 328.701 24.2631C328.64 24.27 328.582 24.2426 328.547 24.1911C328.512 24.1396 328.506 24.0718 328.531 24.0131C328.578 23.9198 328.628 23.8231 328.681 23.7231C328.714 23.6564 328.768 23.6164 328.841 23.6031C331.681 22.9431 334.381 22.2531 337.341 22.1031C353.014 21.2764 368.668 21.5798 384.301 23.0131C384.581 23.0398 384.824 23.1498 385.031 23.3431L385.391 23.6831C385.478 23.7631 385.464 23.8231 385.351 23.8631L384.591 24.1431ZM349.391 44.9831C349.431 37.9431 357.371 34.5631 363.131 36.3531C368.631 38.0631 369.871 42.6931 369.931 48.3231C370.058 60.9564 370.088 73.5931 370.021 86.2331C369.994 90.9264 368.524 94.5664 365.611 97.1531C363.244 99.2531 360.621 100.05 357.741 99.5431C351.631 98.4731 349.121 92.7931 349.151 86.9831C349.218 72.9831 349.298 58.9831 349.391 44.9831ZM211.461 58.8131C197.368 66.1798 186.518 72.4198 178.911 77.5331C143.924 101.06 114.151 129.433 89.5908 162.653C80.9408 174.353 71.1608 188.433 64.0908 201.953C35.0375 257.526 21.8008 317.046 24.3808 380.513C23.4542 379.82 22.9808 378.56 22.9608 376.733C22.8142 363.6 23.0108 348.016 23.5508 329.983C23.6108 328.033 24.3608 326.493 24.5208 324.973C24.9208 321.053 25.4042 317.146 25.9708 313.253C25.9775 313.206 26.2575 310.926 26.8108 306.413C27.2975 302.486 28.1642 298.64 29.4108 294.873C29.5442 294.466 29.6742 293.68 29.8008 292.513C29.8742 291.866 30.0342 291.063 30.2808 290.103C32.9208 279.883 35.1175 271.863 36.8708 266.043C36.8908 265.97 37.6942 262.893 39.2808 256.813C40.1075 253.646 41.2342 250.58 42.6608 247.613C43.5408 245.783 43.6108 243.853 44.3208 242.073C46.7075 236.1 49.0608 230.11 51.3808 224.103C52.3475 221.603 53.5042 219.09 54.8508 216.563C59.6608 207.513 63.4408 198.113 68.5908 189.203C69.1908 188.156 70.3008 186.61 71.9208 184.563C73.5108 182.533 74.7208 180.173 76.2608 178.243C80.0208 173.543 83.5108 167.713 86.6008 163.593C95.0275 152.38 103.888 141.526 113.181 131.033C117.341 126.343 122.601 121.683 127.231 116.903C131.031 112.97 134.281 109.826 136.981 107.473C140.401 104.5 143.844 101.55 147.311 98.6231C148.731 97.4164 150.248 96.3531 151.861 95.4331C153.828 94.3064 155.344 93.2731 156.411 92.3331C159.384 89.7264 162.344 87.1131 165.291 84.4931C167.684 82.3731 170.261 80.5398 173.021 78.9931C174.088 78.3931 175.501 77.4664 177.261 76.2131C178.661 75.2198 180.181 74.4064 181.821 73.7731C182.128 73.6598 182.378 73.4664 182.571 73.1931C184.001 71.2031 186.131 70.8431 187.641 69.9331C193.561 66.4064 199.574 63.0564 205.681 59.8831C206.061 59.6898 206.454 59.5864 206.861 59.5731C207.214 59.5664 207.521 59.4431 207.781 59.2031C208.954 58.1298 210.328 57.5064 211.901 57.3331C212.281 57.2864 212.368 57.4231 212.161 57.7431C212.161 57.7431 211.461 58.8131 211.461 58.8131Z" fill="#0b281f" fill-rule="nonzero" opacity="1" stroke="none"/>
<path d="M232.381 122.283C239.271 131.973 226.181 142.923 217.421 136.953C216.134 136.073 214.261 133.813 211.801 130.173C205.814 121.326 199.838 112.47 193.871 103.603C191.371 99.8831 189.898 97.0998 189.451 95.2531C187.001 84.9731 200.961 77.6531 207.361 86.8031C215.654 98.6631 223.994 110.49 232.381 122.283Z" fill="#0b281f" fill-rule="nonzero" opacity="1" stroke="none"/>
<path d="M526.187 84.8217L526.627 85.1337C531.275 88.4241 532.374 94.8587 529.084 99.5058L504.386 134.388C501.096 139.035 494.662 140.135 490.014 136.844L489.574 136.532C484.927 133.242 483.827 126.807 487.117 122.16L511.815 87.2783C515.105 82.6312 521.54 81.5313 526.187 84.8217Z" fill="#0b281f" fill-rule="nonzero" opacity="1" stroke="none"/>
<path d="M345.111 138.043C345.804 138.043 346.178 138.14 346.231 138.333C346.303 138.605 346.215 138.88 346.011 139.023C332.918 148.563 320.584 158.676 309.011 169.363C301.311 176.47 296.411 180.983 294.311 182.903C287.344 189.25 279.924 196.32 272.051 204.113C267.731 208.393 264.124 212.336 261.231 215.943C255.964 222.49 250.604 228.96 245.151 235.353C244.311 236.333 242.714 238.443 240.361 241.683C238.291 244.533 235.591 247.073 233.791 250.013C230.951 254.646 227.594 258.866 223.721 262.673C256.251 213.723 298.441 173.353 345.111 138.043ZM349.701 162.383C347.814 163.196 346.228 164.136 344.941 165.203C331.874 176.023 319.014 187.24 306.361 198.853C308.454 195.453 311.221 192.513 314.661 190.033C315.828 189.186 317.078 188.05 318.411 186.623C319.471 185.496 320.758 184.356 322.271 183.203C325.371 180.85 331.421 175.543 340.421 167.283C342.848 165.056 345.538 163.016 348.491 161.163C351.691 159.15 354.974 157.02 358.341 154.773C359.239 154.177 360.419 154.234 361.251 154.913L367.031 159.633C367.174 159.746 367.212 159.944 367.12 160.102C367.029 160.26 366.835 160.333 366.661 160.273C364.961 159.633 363.611 158.413 361.861 158.283C357.928 157.99 354.501 159.18 351.581 161.853C351.405 162.022 351.182 162.134 350.941 162.173C350.941 162.173 349.701 162.383 349.701 162.383Z" fill="#0b281f" fill-rule="nonzero" opacity="1" stroke="none"/>
<path d="M88.4622 205.28L121.83 226.456C126.675 229.531 128.11 235.951 125.035 240.796L124.639 241.42C121.564 246.265 115.144 247.7 110.299 244.626L76.9312 223.45C72.0863 220.375 70.6512 213.955 73.7259 209.11L74.1224 208.485C77.1971 203.64 83.6173 202.205 88.4622 205.28Z" fill="#0b281f" fill-rule="nonzero" opacity="1" stroke="none"/>
<path d="M596.962 226.483L631.173 205.106C636.016 202.08 642.395 203.552 645.421 208.395L645.908 209.176C648.935 214.018 647.462 220.398 642.619 223.424L608.409 244.801C603.566 247.827 597.187 246.354 594.161 241.511L593.673 240.731C590.647 235.888 592.12 229.509 596.962 226.483Z" fill="#0b281f" fill-rule="nonzero" opacity="1" stroke="none"/>
<path d="M276.651 229.433L259.051 250.443C258.378 250.176 258.231 249.76 258.611 249.193C259.798 247.426 262.088 244.356 265.481 239.983C268.081 236.623 271.711 233.163 274.581 229.473C274.834 229.14 275.138 228.913 275.491 228.793C276.584 228.413 276.971 228.626 276.651 229.433ZM204.171 296.733L221.711 308.623C226.711 312.236 236.431 318.79 250.871 328.283C283.044 349.43 315.244 370.376 347.471 391.123C347.812 391.338 348.243 391.353 348.596 391.161C348.95 390.97 349.17 390.603 349.171 390.203L349.631 333.253L350.351 333.053C350.718 332.953 350.901 333.093 350.901 333.473L350.831 388.443C350.831 388.776 350.998 388.91 351.331 388.843C357.491 387.643 363.738 387.993 370.071 389.893L378.591 396.743C378.871 396.97 379.168 396.99 379.481 396.803L503.641 323.013L522.421 311.823C531.748 306.49 541.084 300.953 550.431 295.213C554.838 292.513 558.114 290.95 560.261 290.523C573.011 288.023 578.131 305.583 566.861 312.393C558.634 317.373 552.224 321.173 547.631 323.793L529.601 334.213C529.281 334.4 529.174 334.666 529.281 335.013L535.091 353.843C539.504 371.936 541.181 390.38 540.121 409.173C539.761 409.533 539.681 410.093 539.881 410.853C539.888 410.86 539.874 410.863 539.841 410.863C539.828 410.87 539.811 410.876 539.791 410.883C539.758 410.896 539.748 410.883 539.761 410.843C540.008 410.15 539.921 409.55 539.501 409.043C539.288 408.79 539.181 408.5 539.181 408.173C539.128 402.766 539.048 397.36 538.941 391.953C538.881 389.286 538.564 386.166 537.991 382.593C537.491 379.48 537.114 376.356 536.861 373.223C536.648 370.61 536.214 367.846 535.561 364.933C534.948 362.18 534.494 359.413 534.201 356.633C534.166 356.291 533.965 355.988 533.662 355.824C533.36 355.66 532.997 355.656 532.691 355.813L515.071 364.943L510.481 346.163C510.261 345.27 509.758 345.056 508.971 345.523L385.721 418.363C385.428 418.536 385.211 418.776 385.071 419.083C383.511 422.333 382.341 425.973 380.311 428.613C377.704 432.006 374.521 434.806 370.761 437.013C370.494 437.175 370.328 437.465 370.321 437.783L369.941 457.973C369.874 458.266 369.868 458.493 369.921 458.653L369.551 460.043C369.522 460.178 369.4 460.269 369.262 460.259C369.124 460.249 369.01 460.141 368.991 460.003L368.811 458.663C368.758 458.276 368.531 458.09 368.131 458.103C364.551 458.25 361.024 457.88 357.551 456.993C357.271 456.926 357.038 456.783 356.851 456.563C356.531 456.19 356.134 456.03 355.661 456.083C355.321 456.13 354.998 456.076 354.691 455.923L350.311 453.743C350.095 453.632 349.852 453.587 349.611 453.613C349.064 453.666 348.781 453.513 348.761 453.153C349.054 448.04 349.068 443.053 348.801 438.193C348.711 436.433 347.821 436.133 346.351 435.573C338.531 430.066 334.934 422.03 335.561 411.463C335.661 409.603 334.091 409.363 332.961 408.643C296.214 385.036 259.724 361.036 223.491 336.643C221.351 335.203 219.311 333.973 217.371 332.953C215.811 331.46 214.231 330.59 212.631 330.343C212.284 330.29 212.058 330.426 211.951 330.753L209.431 338.303L206.471 349.153C203.064 361.813 201.234 374.656 200.981 387.683C200.021 388.423 199.634 388.133 199.821 386.813C200.291 383.473 199.601 380.003 200.221 376.493C201.034 371.853 201.448 369.483 201.461 369.383C202.248 363.183 203.228 357.016 204.401 350.883C204.576 349.962 204.166 349.029 203.371 348.533L188.801 339.363C188.678 339.287 188.528 339.268 188.393 339.313C188.257 339.357 188.15 339.46 188.101 339.593C184.811 348.623 183.331 358.933 182.011 368.413C180.641 378.283 180.851 390.243 179.891 401.363C179.873 401.528 179.738 401.659 179.574 401.672C179.409 401.684 179.264 401.574 179.231 401.413L179.021 400.493C178.421 372.28 183.071 345.016 192.971 318.703C193.218 318.043 193.201 317.576 192.921 317.303C192.608 317.01 192.081 316.8 191.341 316.673L173.591 305.233C167.118 301.02 160.661 296.93 154.221 292.963C152.441 291.87 150.868 289.856 149.501 286.923C147.051 281.663 149.851 275.783 154.801 273.143C159.234 270.79 163.908 271.263 168.821 274.563C175.994 279.383 187.778 286.773 204.171 296.733ZM551.291 639.493C596.451 607.043 634.161 564.583 659.451 515.413C662.424 509.633 665.201 503.573 667.781 497.233C676.701 475.3 683.381 453.213 687.821 430.973C693.141 404.353 696.231 377.233 694.701 347.483C694.781 346.723 694.878 346.32 694.991 346.273C695.275 346.151 695.601 346.179 695.863 346.347C696.124 346.514 696.288 346.801 696.301 347.113C696.574 355.5 696.781 363.856 696.921 372.183L697.161 375.273C697.361 377.793 696.471 380.353 696.391 382.563C696.311 384.99 696.114 387.406 695.801 389.813C695.554 391.66 695.298 394.476 695.031 398.263C694.851 400.863 694.441 403.683 693.801 406.723C693.641 407.49 693.334 408.026 692.881 408.333C692.614 408.513 692.491 408.76 692.511 409.073C692.851 414.293 691.391 419.993 690.851 423.813C690.518 426.126 690.138 428.433 689.711 430.733C689.671 430.953 689.541 431.083 689.321 431.123C689.114 431.163 689.008 431.283 689.001 431.483C688.901 434.496 688.591 437.073 688.071 439.213C688.018 439.413 687.894 439.55 687.701 439.623C687.614 439.65 687.531 439.683 687.451 439.723C687.384 439.756 687.344 439.81 687.331 439.883C686.971 442.843 687.181 446.423 685.791 449.073C685.244 450.126 684.874 451.103 684.681 452.003C683.874 455.743 683.044 458.783 682.191 461.123C679.618 468.196 677.168 475.306 674.841 482.453C672.448 489.793 670.131 496.04 667.891 501.193C663.304 511.773 659.698 519.25 657.071 523.623C652.831 530.663 648.621 537.723 644.441 544.803C644.414 544.85 644.038 545.66 643.311 547.233C642.621 548.713 641.321 549.543 640.561 550.963C638.911 554.063 636.061 557.253 634.591 559.253C632.264 562.393 629.841 565.456 627.321 568.443C627.178 568.612 627.094 568.826 627.081 569.053C627.061 569.333 626.971 569.563 626.811 569.743C621.558 575.676 616.414 581.703 611.381 587.823C608.028 591.903 602.821 597.2 595.761 603.713C581.471 616.893 567.921 629.643 552.001 640.223C551.681 640.436 551.451 640.366 551.311 640.013C551.258 639.86 551.251 639.686 551.291 639.493Z" fill="#0b281f" fill-rule="nonzero" opacity="1" stroke="none"/>
<path d="M45.6427 351.888L85.5426 351.818C90.9329 351.809 95.3102 356.171 95.3196 361.561L95.3219 362.881C95.3314 368.272 90.9693 372.649 85.579 372.658L45.6791 372.728C40.2888 372.737 35.9114 368.375 35.902 362.985L35.8997 361.665C35.8903 356.275 40.2524 351.897 45.6427 351.888Z" fill="#0b281f" fill-rule="nonzero" opacity="1" stroke="none"/>
<path d="M633.018 351.977L674.097 351.69C679.438 351.653 683.797 355.952 683.835 361.292L683.846 362.872C683.883 368.213 679.584 372.572 674.243 372.609L633.164 372.896C627.824 372.934 623.464 368.634 623.427 363.294L623.416 361.714C623.379 356.374 627.678 352.014 633.018 351.977Z" fill="#0b281f" fill-rule="nonzero" opacity="1" stroke="none"/>
<path d="M537.991 426.493C537.344 431 536.164 436.326 534.451 442.473C522.558 485.293 498.001 519.34 460.781 544.613C453.814 549.353 448.044 552.82 443.471 555.013L442.441 554.863C441.954 554.783 441.851 554.543 442.131 554.143C443.811 551.693 445.801 551.523 448.091 550.443C450.351 549.37 452.611 548.306 454.871 547.253C455.184 547.113 455.431 546.9 455.611 546.613C456.111 545.823 456.521 545.223 457.371 544.753C459.998 543.3 462.454 541.606 464.741 539.673C465.731 538.843 466.861 539.093 467.681 538.333C470.108 536.06 472.571 533.823 475.071 531.623C477.261 529.703 480.161 526.173 483.111 523.833C484.551 522.693 485.661 521.693 486.441 520.833C489.228 517.733 491.964 514.593 494.651 511.413C495.424 510.486 496.391 509.6 497.551 508.753C498.991 507.706 499.978 506.816 500.511 506.083C505.411 499.356 510.651 491.353 516.231 482.073C520.851 474.393 524.501 466.726 527.181 459.073C527.361 458.56 527.868 457.456 528.701 455.763C529.411 454.303 529.771 452.353 530.191 451.093C531.611 446.9 532.904 442.676 534.071 438.423C535.211 434.27 536.071 429.98 536.651 425.553C536.685 425.29 536.901 425.088 537.166 425.074C537.431 425.059 537.668 425.235 537.731 425.493C537.731 425.493 537.991 426.493 537.991 426.493ZM612.701 482.823C621.094 487.943 629.448 493.12 637.761 498.353C641.441 500.666 643.818 502.523 644.891 503.923C651.791 512.843 641.151 525.103 631.031 519.883C627.071 517.836 620.261 513.516 610.601 506.923C606.351 504.023 599.851 501.063 595.801 497.343C588.251 490.423 593.661 476.553 604.371 478.803C606.158 479.183 608.934 480.523 612.701 482.823ZM125.821 493.573C123.671 498.543 120.651 499.963 115.011 503.363C107.544 507.863 100.101 512.42 92.6808 517.033C88.9208 519.373 85.9342 520.69 83.7208 520.983C79.3942 521.55 76.1775 519.916 74.0708 516.083C70.4808 509.543 72.3508 503.773 78.6308 499.933C88.8242 493.706 99.0575 487.54 109.331 481.433C112.251 479.706 114.634 478.83 116.481 478.803C124.461 478.683 128.871 486.463 125.821 493.573Z" fill="#0b281f" fill-rule="nonzero" opacity="1" stroke="none"/>
<path d="M229.311 588.451L229.798 588.801C234.431 592.13 235.488 598.585 232.159 603.218L207.428 637.634C204.099 642.267 197.645 643.324 193.012 639.995L192.524 639.645C187.891 636.316 186.834 629.861 190.163 625.228L214.894 590.812C218.223 586.179 224.678 585.122 229.311 588.451Z" fill="#0b281f" fill-rule="nonzero" opacity="1" stroke="none"/>
<path d="M489.521 588.778L490.521 588.08C495.101 584.885 501.403 586.007 504.597 590.587L528.948 625.493C532.143 630.072 531.02 636.374 526.441 639.569L525.44 640.267C520.861 643.461 514.559 642.339 511.364 637.759L487.013 602.854C483.819 598.274 484.941 591.972 489.521 588.778Z" fill="#0b281f" fill-rule="nonzero" opacity="1" stroke="none"/>
<path d="M359.294 627.002L360.054 627.004C365.626 627.014 370.136 631.539 370.126 637.111L370.055 677.631C370.046 683.204 365.52 687.713 359.948 687.704L359.188 687.702C353.615 687.693 349.106 683.167 349.116 677.595L349.186 637.075C349.196 631.502 353.721 626.993 359.294 627.002Z" fill="#0b281f" fill-rule="nonzero" opacity="1" stroke="none"/>
</g>
<path d="M349.701 162.383L348.891 279.623C348.887 279.891 348.744 280.138 348.514 280.275C348.283 280.412 347.998 280.418 347.761 280.293C345.514 279.1 343.608 277.876 342.041 276.623C326.741 264.41 312.948 253.11 300.661 242.723C295.221 238.123 286.931 236.153 282.241 242.733C277.661 249.163 281.051 254.813 286.401 259.243C306.708 276.083 327.241 292.636 348.001 308.903C348.841 309.563 349.281 310.506 349.321 311.733C349.554 318.88 349.658 326.053 349.631 333.253L349.171 390.203C349.17 390.603 348.95 390.97 348.596 391.161C348.243 391.353 347.812 391.338 347.471 391.123C315.244 370.376 283.044 349.43 250.871 328.283C236.431 318.79 226.711 312.236 221.711 308.623C223.084 305.623 224.101 303.523 224.761 302.323C234.808 284.123 246.238 266.83 259.051 250.443L276.651 229.433L306.361 198.853C319.014 187.24 331.874 176.023 344.941 165.203C346.228 164.136 347.814 163.196 349.701 162.383ZM206.471 349.153C206.491 349.286 206.514 349.403 206.541 349.503C206.628 349.783 206.784 349.826 207.011 349.633C207.091 349.566 207.168 349.493 207.241 349.413C207.401 349.24 207.551 349.253 207.691 349.453L208.531 350.673C208.698 350.92 208.908 351.12 209.161 351.273C215.201 354.986 221.294 358.616 227.441 362.163C234.254 366.09 248.681 375.586 270.721 390.653C274.241 393.063 279.041 395.603 282.951 398.123C293.191 404.736 304.471 411.733 316.791 419.113C318.811 420.326 320.614 421.836 322.201 423.643C325.801 427.743 327.101 433.783 331.191 438.013C334.201 441.123 342.031 448.893 346.481 448.643C347.28 448.597 347.941 448.003 348.071 447.213C348.718 443.186 348.144 439.306 346.351 435.573C347.821 436.133 348.711 436.433 348.801 438.193C349.068 443.053 349.054 448.04 348.761 453.153C321.654 433.993 287.048 410.02 244.941 381.233C240.308 378.066 235.994 377.686 232.001 380.093C229.481 381.606 227.818 383.696 227.011 386.363C224.671 394.093 232.931 400.343 238.581 404.073C262.731 420.013 287.201 435.953 310.401 453.233C322.931 462.563 335.741 471.373 347.871 481.233C349.551 482.603 349.501 483.843 349.521 485.853C349.748 508.313 349.534 530.83 348.881 553.403C348.874 553.603 348.774 553.696 348.581 553.683C263.101 546.633 195.721 474.963 200.981 387.683C201.234 374.656 203.064 361.813 206.471 349.153Z" fill="#89e49f" fill-rule="nonzero" opacity="1" stroke="none"/>
<path d="M217.371 332.953C219.311 333.973 221.351 335.203 223.491 336.643C259.724 361.036 296.214 385.036 332.961 408.643C334.091 409.363 335.661 409.603 335.561 411.463C334.934 422.03 338.531 430.066 346.351 435.573C348.144 439.306 348.718 443.186 348.071 447.213C347.941 448.003 347.28 448.597 346.481 448.643C342.031 448.893 334.201 441.123 331.191 438.013C327.101 433.783 325.801 427.743 322.201 423.643C320.614 421.836 318.811 420.326 316.791 419.113C304.471 411.733 293.191 404.736 282.951 398.123C279.041 395.603 274.241 393.063 270.721 390.653C248.681 375.586 234.254 366.09 227.441 362.163C221.294 358.616 215.201 354.986 209.161 351.273C208.908 351.12 208.698 350.92 208.531 350.673L207.691 349.453C207.551 349.253 207.401 349.24 207.241 349.413C207.168 349.493 207.091 349.566 207.011 349.633C206.784 349.826 206.628 349.783 206.541 349.503C206.514 349.403 206.491 349.286 206.471 349.153L209.431 338.303L212.141 333.093C212.321 332.74 212.608 332.58 213.001 332.613C213.001 332.613 217.371 332.953 217.371 332.953ZM371.771 525.883C371.758 527.203 371.228 528.35 370.181 529.323C370.001 527.543 370.531 526.396 371.771 525.883Z" fill="#70bb82" fill-rule="nonzero" opacity="1" stroke="none"/>
<path d="M515.071 364.943L516.101 370.313L513.271 366.193C513.071 365.9 512.821 365.846 512.521 366.033C489.061 380.433 464.471 392.923 441.441 408.023C438.801 409.753 435.481 411.203 433.171 412.693C426.358 417.066 419.478 421.33 412.531 425.483C400.651 432.573 389.251 440.963 377.351 448.413C377.204 448.506 376.121 449.05 374.101 450.043C373.054 450.556 372.074 451.176 371.161 451.903C370.891 452.117 370.742 452.449 370.761 452.793C370.861 454.66 370.588 456.386 369.941 457.973L370.321 437.783C370.328 437.465 370.494 437.175 370.761 437.013C374.521 434.806 377.704 432.006 380.311 428.613C382.341 425.973 383.511 422.333 385.071 419.083C385.211 418.776 385.428 418.536 385.721 418.363L508.971 345.523C509.758 345.056 510.261 345.27 510.481 346.163C510.481 346.163 515.071 364.943 515.071 364.943Z" fill="#00b361" fill-rule="nonzero" opacity="1" stroke="none"/>
<path d="M173.591 305.233L191.341 316.673C191.221 317.306 191.324 317.996 191.651 318.743C191.784 319.05 191.761 319.343 191.581 319.623C190.861 320.756 190.364 321.756 190.091 322.623C188.651 327.17 187.231 331.596 185.831 335.903C185.743 336.169 185.536 336.379 185.272 336.47C185.008 336.56 184.719 336.521 184.491 336.363C180.251 333.543 176.221 330.473 171.801 327.883C166.314 324.676 160.968 321.256 155.761 317.623C152.721 315.503 152.281 313.753 152.461 310.243C153.041 299.193 162.531 298.503 169.611 304.653C170.811 305.693 172.281 306.053 173.591 305.233ZM547.631 323.793C547.478 324.213 547.511 324.55 547.731 324.803C547.971 325.063 548.241 325.103 548.541 324.923C550.161 323.97 551.628 323.643 552.941 323.943C558.774 325.256 561.678 328.673 561.651 334.193C561.641 337.353 559.601 340.383 556.981 341.803C549.768 345.73 542.471 349.743 535.091 353.843L529.281 335.013C529.174 334.666 529.281 334.4 529.601 334.213L547.631 323.793Z" fill="#f2e1d5" fill-rule="nonzero" opacity="1" stroke="none"/>
</g>
</svg>
