<svg xmlns="http://www.w3.org/2000/svg" xmlns:xlink="http://www.w3.org/1999/xlink" xml:space="preserve" stroke-miterlimit="10" style="fill-rule:nonzero;clip-rule:evenodd;stroke-linecap:round;stroke-linejoin:round" viewBox="0 0 1024 1024"><defs><path id="a" d="M0 512C0 229.23 229.23 0 512 0s512 229.23 512 512-229.23 512-512 512S0 794.77 0 512Z"/></defs><path fill="currentColor" d="M412.79 632.45c-21.12-20.52-33.79-45.38-38-74.57-11.55-80.15 43.25-147.9 107.65-186.73 47.15-28.42 95.33-49.08 144.54-61.98 7.1-1.84 10.87 3.98 12.17 10.42 4.66 23.14 8.7 46.4 12.11 69.78 4.01 27.46 5.03 56.21 3.06 86.27-3.95 60.34-26.48 113.62-74.52 151.44-39.92 31.4-92.83 42.07-140.2 21.79-.45-.2-.8-.08-1.04.34a271.65 271.65 0 0 0-22.62 49.87c-1.58 4.7-3.05 7.88-4.4 9.55-8.32 10.4-24.76 7.23-26.8-6.41-.5-3.3.17-7.24 2.02-11.81a616.91 616.91 0 0 1 26.23-56.66c.26-.48.2-.92-.2-1.3zm97.95-138.81a1971.2 1971.2 0 0 1-8.8-45.94c-.85-4.79-1.77-8-2.76-9.65-5.1-8.56-17.8-6.94-20.8 2.73-.67 2.15-.57 5.56.28 10.23 4.38 23.93 8.78 47.87 13.2 71.8.18.92 0 1.78-.5 2.58l-27.5 42.25a.4.4 0 0 1-.71-.14 8330.16 8330.16 0 0 0-10.84-57.86c-1.11-5.85-2.85-10.44-8.85-11.45-11.3-1.9-14.46 8.18-12.85 17.08 3.8 20.81 7.55 41.65 11.26 62.52 2.35 13.27 4.97 21.96 16.45 27.9 10.38 5.36 23.99 2.7 34.97-.65 26-7.98 48.62-15.1 67.87-21.4 5.89-1.92 10.15-4.14 11.14-10.22 1.27-7.8-4.16-14.08-12.32-13.28-7.11.7-15.14 4.78-20.16 6.37a1979.54 1979.54 0 0 1-57.01 17.01c-.55.16-.67 0-.35-.48l29.7-45.56c.2-.28.48-.5.8-.6a6322.4 6322.4 0 0 1 70.07-22.92c5.47-1.77 11.06-3.5 13-9.2 1.82-5.35-.79-11.43-5.8-14.04-5.31-2.75-9.83-.88-16.63 1.37a2628.25 2628.25 0 0 0-41.11 14.04c-.6.22-.72.06-.36-.46 5.82-8.54 12.21-17.28 17.54-25.52a5274.49 5274.49 0 0 1 50.71-76.86c2.58-3.84 5.47-6.9 4.94-11.73-.88-8.03-10.2-13.43-17.42-9.02l-.56.37c-2.04 1.45-4.32 4.1-6.86 7.97a6593.44 6593.44 0 0 1-69 102.91c-.37.52-.61.47-.74-.15z"/><path id="c" fill="currentColor" fill-rule="nonzero" stroke="none" d="M510.88 100.38h2.36c10.26.03 18.56 10.31 18.54 22.98l-.04 33.82c-.02 12.67-8.35 22.92-18.62 22.9l-2.36-.01c-10.26-.02-18.56-10.3-18.54-22.98l.04-33.82c.02-12.66 8.35-22.91 18.62-22.9z" opacity="1" style="stroke-width:.664139"/><mask id="b" width="1024" height="1024" x="0" y="0" maskUnits="userSpaceOnUse"><path d="M0 0h1024v1024H0z"/><use xlink:href="#a" fill="#fff" fill-rule="evenodd"/></mask><use xlink:href="#a" fill="none" stroke="currentColor" stroke-linecap="butt" stroke-linejoin="miter" stroke-width="140" mask="url(#b)"/><use xlink:href="#c"/><use xlink:href="#c" transform="rotate(30 512 512)"/><use xlink:href="#c" transform="rotate(60 512 512)"/><use xlink:href="#c" transform="rotate(90 512 512)"/><use xlink:href="#c" transform="rotate(120 512 512)"/><use xlink:href="#c" transform="rotate(150 512 512)"/><use xlink:href="#c" transform="rotate(180 512 512)"/><use xlink:href="#c" transform="rotate(-150 512 512)"/><use xlink:href="#c" transform="rotate(-120 512 512)"/><use xlink:href="#c" transform="rotate(-90 512 512)"/><use xlink:href="#c" transform="rotate(-60 512 512)"/><use xlink:href="#c" transform="rotate(-30 512 512)"/></svg>